<svg width="69" height="90" viewBox="0 0 69 90" fill="none" xmlns="http://www.w3.org/2000/svg">
<path d="M28.3351 0.315311C27.2761 0.686872 25.6529 1.75521 24.8566 2.60677L24.3929 3.09444L25.5138 2.5371C27.6393 1.46877 30.7158 0.988765 33.1893 1.32943C34.4415 1.49976 34.3488 1.34488 32.7023 0.562987C31.3419 -0.0872458 29.7418 -0.180233 28.3351 0.315311Z" fill="#17254E"/>
<path d="M30.5004 3.09472C27.3081 3.5515 23.8762 5.44816 20.3746 8.69962C18.9291 10.0466 18.9059 10.2479 20.2972 9.40407C25.6462 6.18361 33.631 4.96049 40.8892 6.26105C41.3839 6.35394 41.3761 6.3384 40.6263 5.81973C37.3412 3.55927 33.8551 2.6225 30.5004 3.09472Z" fill="#17254E"/>
<path d="M30.3459 7.6314C27.3081 8.28941 24.3631 9.9384 21.2171 12.7485C20.3746 13.5072 19.702 14.1343 19.7252 14.1575C19.7484 14.1807 20.5832 13.7936 21.5881 13.2982C27.3699 10.4261 33.9324 9.65196 41.2447 10.9602C43.1616 11.3086 43.1539 11.3319 41.5848 10.2867C37.9518 7.86363 33.8087 6.88818 30.3459 7.6314Z" fill="#17254E"/>
<path d="M58.56 9.05535C56.2106 9.33402 55.0589 9.7908 52.4617 11.4785C49.5554 13.3596 48.0017 13.9015 45.5359 13.9093C44.3687 13.9093 44.361 13.9635 45.3659 14.9698C47.3138 16.9284 49.7795 17.1994 52.6008 15.7749C53.7526 15.1866 53.6135 15.1556 53.9767 16.1156C54.9815 18.8251 54.3169 21.1321 50.9931 26.4505C48.6896 30.1432 48.1331 31.4748 48.1331 33.263V34.1146L48.566 33.0308C49.2462 31.3044 49.9805 30.3135 52.6317 27.5653C57.9343 22.0455 58.6223 20.3734 57.6948 15.2949C57.1841 12.5158 57.4246 11.3081 58.8005 9.81402C59.4415 9.11725 59.5344 8.93924 59.2173 8.97791C59.109 8.99336 58.8158 9.02436 58.56 9.05535Z" fill="#17254E"/>
<path d="M28.9086 12.0981C28.8777 12.1986 28.9859 12.4851 29.1559 12.7251C29.3183 12.9651 29.4961 13.4683 29.5347 13.8321L29.612 14.5057L28.9936 14.3663C28.6535 14.2889 28.1897 14.1573 27.9578 14.0644C27.0226 13.716 26.3578 14.0257 26.5356 14.7302C26.6438 15.1714 27.0071 15.3494 28.5453 15.7133C29.6584 15.9843 29.7279 16.023 29.7279 16.4178C29.7279 16.8978 29.6352 16.8978 27.7337 16.3791C26.6592 16.0849 26.4042 16.1159 26.1645 16.5571C25.8013 17.2307 26.8989 17.85 28.9859 18.1519C29.6274 18.2526 29.7203 18.3144 29.8053 18.717C30.2458 20.7143 33.2836 20.6447 33.2836 18.6473C33.2836 18.1751 33.3145 18.1519 34.3271 17.881C36.2827 17.37 36.7928 16.9984 36.5146 16.2708C36.3677 15.8759 35.8885 15.814 35.1851 16.0927C34.9455 16.1933 34.4585 16.3637 34.0952 16.4798L33.4382 16.681V16.232C33.4382 15.8372 33.5155 15.7598 34.0566 15.6127C35.7107 15.1637 36.3445 14.6914 36.1358 14.0489C35.9967 13.5999 35.5098 13.5534 34.5899 13.9018C33.2759 14.3895 33.0439 14.0721 33.8324 12.9032C34.103 12.5083 34.1802 12.2683 34.072 12.16C33.7165 11.8039 32.9744 12.9186 32.9744 13.8167C32.9744 14.4902 32.9512 14.4979 31.583 14.6295C30.3154 14.7456 30.0371 14.5831 30.0371 13.7083C30.0371 12.9032 29.1019 11.5639 28.9086 12.0981ZM32.8198 16.3869V16.8513H31.5058C30.215 16.8513 30.1918 16.8436 30.1918 16.472C30.1918 16.1081 30.2382 16.0849 31.3125 16.0384C31.9309 16.0075 32.5184 15.9688 32.6266 15.9533C32.7425 15.9379 32.8198 16.1004 32.8198 16.3869ZM32.8198 18.5467C32.8198 19.5144 31.3435 20.0331 30.6633 19.2977C29.9908 18.5777 30.215 18.33 31.583 18.2835C32.7116 18.2525 32.8198 18.2758 32.8198 18.5467Z" fill="#17254E"/>
<path d="M1.96425 12.9105C1.8715 12.9493 2.18846 13.3827 2.6754 13.8705C3.95857 15.1711 4.19811 15.9375 4.37594 19.2509C4.66195 24.6699 5.36534 25.8157 11.2785 30.445C14.2853 32.7985 15.128 33.65 16.0478 35.2138C16.728 36.3828 16.7744 36.406 16.6352 35.5467C16.3724 33.828 15.5144 32.4191 12.6389 29.0051C8.76643 24.4067 7.73066 22.2003 8.14027 19.4676C8.31035 18.3373 8.35672 18.3141 9.57023 18.7322C12.6081 19.7772 15.4062 18.8173 16.8671 16.2162L17.2303 15.5736L16.7898 15.6665C14.3472 16.2162 12.1366 15.8523 9.02149 14.3892C6.28518 13.1041 2.99236 12.4151 1.96425 12.9105Z" fill="#17254E"/>
<path d="M41.0717 13.5221C42.007 17.3773 41.8524 22.8661 40.6774 27.6116C39.3016 33.139 39.8273 34.8035 44.9288 41.1437C50.6333 48.2272 51.3521 52.4309 47.5106 56.3403C46.3975 57.4783 46.4051 57.5015 47.5878 56.6344C52.7666 52.8334 52.2179 48.7304 45.2921 39.4716C41.8369 34.8499 41.605 33.4409 43.1123 26.2181C44.2718 20.6675 44.2332 18.4302 42.9346 15.8291C42.378 14.722 40.9248 12.9183 41.0717 13.5221Z" fill="#17254E"/>
<path d="M45.7038 18.1129C47.072 20.6599 47.814 23.4778 47.814 26.079C47.814 26.8918 47.8759 27.5343 47.9609 27.5343C48.417 27.5343 50.8749 24.3371 51.7407 22.6185C52.7146 20.6676 53.333 17.1065 52.6451 17.393C49.8392 18.5774 48.3242 18.4691 45.1396 16.8821C45.07 16.8434 45.3251 17.4007 45.7038 18.1129Z" fill="#17254E"/>
<path d="M18.2399 18.7092C17.552 25.9166 18.2862 31.3511 20.5434 35.7483C22.3057 39.1855 25.2817 41.5079 32.1456 44.8136C39.597 48.3979 40.8956 49.1333 42.4029 50.6042C48.2233 56.2865 36.2501 64.0898 28.1726 59.8785C22.4603 56.9058 22.1588 50.2558 27.6779 48.8701C28.8373 48.5759 28.7754 48.4908 27.1909 48.1191C22.2439 46.9811 19.0283 49.4507 19.4225 54.0878C19.8477 59.1585 24.2768 62.0538 31.5891 62.0616C41.4599 62.0694 48.3547 56.8903 46.2909 51.0222C45.3711 48.4056 44.4512 47.7708 34.7505 43.1027C27.7552 39.7351 24.1608 36.4992 21.6951 31.3434C20.1878 28.1848 19.0206 23.9579 18.7269 20.5749C18.4795 17.6951 18.3713 17.2926 18.2399 18.7092Z" fill="#17254E"/>
<path d="M16.2748 19.0886C14.296 20.3891 12.2786 20.8305 10.4234 20.3505C9.89006 20.2189 9.41079 20.1027 9.35675 20.1027C9.17891 20.1027 9.47269 22.1 9.77412 22.9206C10.4002 24.585 12.1703 26.683 14.8448 28.897L15.6487 29.5706L15.5636 28.2777C15.5172 27.5733 15.4554 26.8688 15.4323 26.7217C15.1772 25.4134 15.9888 21.3181 16.8932 19.3672C17.1405 18.8331 17.326 18.4073 17.3105 18.4151C17.2951 18.4151 16.8313 18.7248 16.2748 19.0886Z" fill="#17254E"/>
<path d="M36.0385 19.3828C34.1215 20.1801 32.537 22.0846 32.8925 23.1916C33.1167 23.9038 33.9592 23.1684 34.6162 21.6897C35.4201 19.8705 37.0356 18.9879 38.9912 19.2899C40.1584 19.4679 40.3748 19.4215 39.5168 19.1892C38.4965 18.9028 37.0047 18.9879 36.0385 19.3828Z" fill="#17254E"/>
<path d="M23.9315 19.3208C23.5528 19.4215 23.6378 19.4525 24.4417 19.4679C26.1036 19.4989 27.348 20.3195 28.0824 21.8678C28.6776 23.1451 29.4196 23.927 29.6824 23.5709C30.8883 21.9219 26.4436 18.6396 23.9315 19.3208Z" fill="#17254E"/>
<path d="M31.3376 20.7917C31.1907 21.171 31.3453 21.5659 31.6545 21.6278C32.0641 21.7052 32.3965 21.233 32.1956 20.8537C32.0101 20.513 31.4535 20.4743 31.3376 20.7917Z" fill="#17254E"/>
<path d="M36.5981 21.9453C35.3227 22.526 34.6735 23.7181 34.6735 25.4832V26.4509H35.9643C38.2909 26.4509 39.9065 25.2355 40.6099 22.9518C40.7412 22.5182 40.0379 22.3867 38.6157 22.5879C37.0079 22.8201 35.9335 23.5169 35.2532 24.7865L34.9827 25.2819V24.8561C34.9827 22.9053 37.1934 21.4499 39.1335 22.1311C39.8447 22.3789 40.0998 22.1931 39.435 21.8989C38.6697 21.566 37.3789 21.5892 36.5981 21.9453ZM40.2311 22.9827C40.6563 23.4162 38.6001 25.669 37.4871 25.9787C35.7479 26.4664 34.8899 26.149 35.3769 25.1968L35.6165 24.74L36.0185 25.0497C37.2861 26.0484 39.5277 24.5078 38.6929 23.1995C38.4533 22.8201 39.8601 22.6189 40.2311 22.9827Z" fill="#17254E"/>
<path d="M23.7009 21.9758C23.1444 22.1461 22.7193 22.417 22.8275 22.5332C22.8662 22.5719 23.2526 22.479 23.7009 22.3319C25.5793 21.7203 27.7436 23.1524 27.7126 24.9872L27.7049 25.444L27.4112 24.8789C26.7078 23.5473 25.0768 22.7344 23.1212 22.7344C21.9772 22.7344 21.954 22.7577 22.3328 23.7641C22.9589 25.4517 24.4507 26.551 26.3445 26.7213C27.9059 26.8607 28.0296 26.7756 28.0296 25.5369C28.0296 23.0209 25.9348 21.3023 23.7009 21.9758ZM23.9715 23.586C23.4922 25.1343 25.5406 26.3188 26.7387 25.1962L27.0942 24.8557L27.3339 25.413C27.759 26.4427 27.7049 26.5046 26.5068 26.4039C24.7135 26.2568 23.5618 25.5291 22.843 24.1047C22.3251 23.0905 22.3483 23.0441 23.299 23.0441H24.1338L23.9715 23.586Z" fill="#17254E"/>
<path d="M30.7291 24.3527C29.8943 25.1888 30.4817 26.6055 31.6644 26.6055C32.0663 26.6055 32.3214 26.4894 32.5996 26.1953C33.7205 24.9876 31.8963 23.1915 30.7291 24.3527Z" fill="#17254E"/>
<path d="M31.2735 27.3799C30.5856 28.0689 31.1035 29.2379 32.1006 29.2379C32.7576 29.2379 33.1286 28.8353 33.1286 28.1309C33.1286 27.1477 31.9692 26.6832 31.2735 27.3799Z" fill="#17254E"/>
<path d="M31.895 30.0115C31.2844 30.623 31.6863 31.5598 32.552 31.5598C33.3405 31.5598 33.6961 30.5688 33.1009 30.0192C32.6757 29.6167 32.2892 29.6167 31.895 30.0115Z" fill="#17254E"/>
<path d="M32.4136 33.0388C32.143 34.1227 33.4338 37.2812 34.7016 38.6205C35.9073 39.9055 37.059 40.6642 40.5142 42.4603C44.7269 44.6511 45.523 45.2085 46.6979 46.7956C47.3782 47.7245 47.5174 47.5154 46.9531 46.4084C46.1337 44.7904 44.7423 43.6215 41.2408 41.6164C36.1392 38.6979 34.315 36.9639 33.2638 34.0221C32.7536 32.5822 32.5759 32.3808 32.4136 33.0388Z" fill="#17254E"/>
<path d="M5.5356 35.6551C2.0959 37.366 -0.0452138 42.2431 1.33061 45.2391C2.80704 48.4673 6.61775 49.8995 9.67869 48.3898C12.701 46.8957 14.5947 43.5283 13.7445 41.167C13.3117 39.9594 12.8711 40.1065 11.6343 41.8715C10.2507 43.8534 10.1734 43.7759 9.95694 40.0755C9.80239 37.4125 9.57051 36.6306 8.72024 35.8255C8.03228 35.1751 6.6487 35.0977 5.5356 35.6551Z" fill="#17254E"/>
<path d="M57.9228 36.2981C54.205 38.2722 52.7209 41.0436 54.3905 42.8939C55.0166 43.5906 54.9702 43.8229 54.0349 44.5195C52.0407 46.0214 51.5923 46.9349 52.2803 48.0729C53.6871 50.3721 57.9611 50.9063 61.3856 49.2032C64.377 47.7245 66.9899 44.0705 66.7887 41.663C66.6651 40.1302 66.3326 40.1843 65.4358 41.9106C63.9439 44.7828 61.7487 46.5479 61.262 45.2628C61.0608 44.7285 61.1844 44.4654 62.1282 43.4668C63.7513 41.7404 63.4801 40.7262 60.5664 37.4516C59.0362 35.733 59.0055 35.7252 57.9228 36.2981Z" fill="#17254E"/>
<path d="M15.5329 45.2625C15.1618 45.4715 14.1183 46.3463 13.2139 47.2056C9.17135 51.0221 7.13066 51.4325 1.97498 49.4429C1.01653 49.0713 4.30159 51.5331 5.54605 52.1137C8.45244 53.4762 10.6167 52.4389 13.8787 48.1269C15.4401 46.0677 16.0508 45.3941 16.6614 45.0535C16.9551 44.8909 16.9474 44.8832 16.5841 44.8832C16.3754 44.8832 15.8961 45.0534 15.5329 45.2625Z" fill="#17254E"/>
<path d="M58.7526 51.2313C57.9717 51.3629 56.5881 51.7809 56.0927 52.0441C55.8378 52.168 56.0237 52.2455 57.0978 52.4622C67.5638 54.5988 68.406 65.7776 58.5897 72.2956C47.9151 79.3717 38.4462 79.1395 33.0895 71.6536C32.3707 70.6546 33.1901 75.826 33.9553 77.1339C34.4655 78.0014 34.8674 78.226 36.4597 78.5283C48.7113 80.8428 62.6791 75.4469 66.7599 66.8152C70.4009 59.1199 65.7395 50.0469 58.7526 51.2313Z" fill="#17254E"/>
<path d="M1.14196 52.9417C-2.53738 61.1478 2.91207 72.2649 14.066 79.2863C19.6623 82.8081 27.3997 84.9298 29.4403 83.4971C30.9631 82.4291 31.6743 79.9206 31.5119 76.1503C31.3882 73.2475 30.8085 69.9579 30.8085 72.1718C30.8085 73.2321 30.2752 75.7713 29.8191 76.9247C27.5774 82.5068 21.7261 81.9185 13.3781 75.2761C5.37014 68.9043 2.30919 61.5968 4.96819 55.2487L5.40875 54.1958L4.79811 54.103C3.8937 53.9558 2.98939 53.4372 2.2473 52.6553L1.59028 51.9508L1.14196 52.9417Z" fill="#17254E"/>
<path d="M14.1973 55.2489C14.8929 59.9171 17.606 64.3297 21.3163 66.7989C32.2461 74.0843 50.3103 68.2623 52.3818 56.7973C52.6988 55.0632 52.6602 55.0477 51.8639 56.5727C44.2502 71.1805 20.7752 70.7007 14.6224 55.8141C14.1509 54.6838 14.1045 54.6219 14.1973 55.2489Z" fill="#17254E"/>
<path d="M32.6852 56.9986C32.4456 57.2928 32.6156 57.4166 33.2418 57.4166C33.6592 57.4166 33.7597 57.3625 33.7133 57.1457C33.6514 56.8051 32.9326 56.7045 32.6852 56.9986Z" fill="#17254E"/>
<path d="M33.4827 79.0464C36.4817 83.4587 34.8895 87.5851 30.9705 85.5497C30.0197 85.0536 30.0043 85.1544 30.8623 86.3155C33.3358 89.6751 36.6827 90.1012 38.1437 87.2367C39.589 84.4116 37.6258 80.6106 33.5445 78.3191L32.6401 77.8153L33.4827 79.0464Z" fill="#17254E"/>
<path d="M38.5379 80.7267C38.5379 80.7651 38.7853 81.1135 39.0868 81.5079C39.8365 82.4915 40.0606 82.9636 40.3776 84.2178L40.6481 85.2858L41.5911 84.8137C42.9902 84.117 43.8559 82.9789 44.1806 81.4388C44.2811 80.9743 44.2656 80.935 44.0028 81.0751C42.9516 81.6403 40.6172 81.5779 39.1949 80.9513C38.8317 80.7881 38.5379 80.6874 38.5379 80.7267Z" fill="#17254E"/>
</svg>
