<svg width="143" height="143" viewBox="0 0 143 143" fill="none" xmlns="http://www.w3.org/2000/svg">
<path d="M25.3 105.394L19.509 111.881L18.6351 110.504L23.0127 105.93L22.9712 105.863L16.9222 107.806L16.127 106.552L20.4513 101.886L20.4118 101.823L14.4142 103.854L13.5402 102.477L21.8632 99.9791L22.6649 101.242L18.6114 105.81L18.6464 105.864L24.4984 104.13L25.3 105.394ZM20.1645 97.1204L14.484 99.7823L13.8576 98.4418L19.5381 95.7798L20.1645 97.1204ZM13.3628 99.4868C13.4621 99.6989 13.4771 99.9148 13.4081 100.134C13.3367 100.353 13.2011 100.511 13.0014 100.604C12.7992 100.699 12.5921 100.703 12.38 100.615C12.1655 100.529 12.0086 100.38 11.9094 100.167C11.8091 99.9522 11.7952 99.7363 11.8678 99.5185C11.9368 99.2997 12.0724 99.1432 12.2745 99.0482C12.4743 98.9542 12.6814 98.9513 12.8959 99.0367C13.1068 99.1221 13.2625 99.2718 13.3628 99.4868ZM12.89 91.3505L13.5003 92.5626C13.3863 92.6461 13.2899 92.7537 13.2111 92.885C13.1314 93.0139 13.0849 93.1649 13.0714 93.3395C13.058 93.5132 13.0914 93.707 13.1716 93.922C13.2796 94.2099 13.4327 94.4296 13.6311 94.5793C13.8286 94.7262 14.0262 94.7607 14.2241 94.6839C14.3959 94.6225 14.5114 94.5074 14.5707 94.3404C14.6291 94.1696 14.6368 93.922 14.5939 93.5977L14.4327 92.5141C14.3444 91.9126 14.3795 91.4278 14.5384 91.0596C14.6962 90.6889 14.9849 90.4234 15.4046 90.263C15.7751 90.1268 16.142 90.1129 16.5051 90.2213C16.8648 90.328 17.1943 90.5405 17.4936 90.8591C17.7931 91.1776 18.0344 91.582 18.2177 92.0721C18.4871 92.7921 18.5534 93.4278 18.4169 93.9796C18.2778 94.5333 17.9538 94.9526 17.445 95.2395L16.8093 93.9364C17.0514 93.7761 17.2028 93.5708 17.2635 93.3213C17.324 93.0711 17.2947 92.7867 17.1753 92.4676C17.0521 92.1383 16.8858 91.8993 16.6761 91.751C16.4656 91.5999 16.261 91.5617 16.0621 91.6363C15.8939 91.6994 15.7793 91.8167 15.7185 91.988C15.6566 92.1568 15.6469 92.3875 15.6895 92.6801L15.8545 93.7627C15.9483 94.3701 15.9069 94.8624 15.7302 95.2367C15.5511 95.6128 15.2469 95.8796 14.8177 96.0379C14.4567 96.1761 14.1064 96.1953 13.7668 96.0955C13.4238 95.9948 13.1127 95.7923 12.8337 95.49C12.5513 95.1849 12.3222 94.7981 12.1464 94.3279C11.8886 93.6389 11.8322 93.0415 11.9773 92.5358C12.1215 92.0275 12.4257 91.6325 12.89 91.3505ZM16.3789 86.1459C16.4957 86.6253 16.4772 87.0844 16.3235 87.5232C16.1698 87.962 15.8858 88.3486 15.4713 88.6827C15.0567 89.017 14.5149 89.2658 13.8459 89.4293C13.1689 89.5946 12.5706 89.623 12.051 89.5142C11.528 89.4035 11.1012 89.1865 10.7702 88.8632C10.4367 88.5407 10.2128 88.145 10.0986 87.6762C10.0116 87.3186 10.0007 87.0098 10.0663 86.7497C10.1291 86.4902 10.2288 86.2723 10.3651 86.0958C10.4988 85.92 10.6306 85.7769 10.7606 85.6667L10.7462 85.6071L7.70765 86.3494L7.35629 84.9073L15.4802 82.9224L15.8247 84.3367L14.8647 84.5713L14.8861 84.6587C15.0522 84.6966 15.2357 84.7655 15.4365 84.8651C15.6346 84.9654 15.8199 85.1166 15.9925 85.3185C16.165 85.5205 16.2937 85.7963 16.3789 86.1459ZM15.103 86.0326C15.0289 85.728 14.8836 85.4885 14.6674 85.314C14.4486 85.1401 14.1775 85.0338 13.8543 84.9949C13.531 84.9561 13.1723 84.9848 12.7782 85.081C12.3842 85.1774 12.0553 85.3166 11.7915 85.4989C11.5271 85.6786 11.3403 85.8954 11.2313 86.1493C11.1216 86.4007 11.1044 86.6813 11.1799 86.9911C11.258 87.3115 11.4064 87.5587 11.6254 87.7325C11.8442 87.9063 12.1137 88.0117 12.4336 88.0485C12.7536 88.0855 13.1027 88.0576 13.4809 87.9652C13.8616 87.8722 14.1883 87.7349 14.4606 87.5533C14.7297 87.3697 14.924 87.1496 15.0437 86.8931C15.16 86.6345 15.1799 86.3477 15.103 86.0326ZM15.011 78.6422C15.0809 79.2516 15.0076 79.7951 14.7911 80.2728C14.5746 80.7505 14.2398 81.1402 13.7867 81.4421C13.3333 81.7412 12.7849 81.9277 12.1412 82.0017C11.4976 82.0758 10.9198 82.0188 10.4077 81.8307C9.89542 81.6399 9.47977 81.3365 9.1608 80.9204C8.84183 80.5043 8.64742 79.9915 8.57757 79.3822C8.50762 78.7728 8.58092 78.2293 8.79746 77.7516C9.01391 77.2739 9.35023 76.8854 9.80631 76.586C10.2621 76.2838 10.8118 76.0957 11.4554 76.0217C12.0991 75.9476 12.6757 76.0062 13.1853 76.1973C13.6946 76.3857 14.1087 76.6879 14.4277 77.104C14.7467 77.52 14.9411 78.0329 15.011 78.6422ZM13.8338 78.7694C13.7958 78.439 13.6735 78.1731 13.4669 77.9719C13.2575 77.771 12.9925 77.634 12.6718 77.5612C12.3508 77.4856 12.001 77.4696 11.6223 77.5131C11.2411 77.557 10.9026 77.6522 10.607 77.7986C10.3085 77.9427 10.0801 78.1364 9.92158 78.3797C9.7632 78.6229 9.70293 78.9097 9.74077 79.2401C9.77958 79.5787 9.90385 79.8498 10.1135 80.0534C10.3229 80.2544 10.5894 80.3924 10.9132 80.4678C11.2339 80.5406 11.5849 80.5551 11.9662 80.5112C12.3448 80.4677 12.682 80.374 12.9778 80.2303C13.2734 80.0837 13.5004 79.8889 13.6588 79.6457C13.8142 79.4 13.8726 79.1079 13.8338 78.7694ZM14.5168 74.4182L8.24892 74.2006L8.29788 72.7866L9.36297 72.8236L9.36546 72.75C9.01094 72.6067 8.73815 72.3805 8.54738 72.0711C8.35374 71.7615 8.26425 71.3969 8.27881 70.9774C8.29347 70.5524 8.40922 70.1977 8.62605 69.9133C8.84029 69.6262 9.1263 69.4288 9.48408 69.3212L9.48638 69.2558C9.14298 69.1047 8.87364 68.8608 8.67827 68.524C8.48031 68.1843 8.38919 67.787 8.40491 67.3319C8.42493 66.7543 8.62346 66.2893 9.00059 65.937C9.37782 65.5845 9.91593 65.4204 10.6151 65.4447L14.8222 65.5907L14.7709 67.0742L10.7923 66.9361C10.4032 66.9226 10.1154 67.0162 9.92867 67.2171C9.73924 67.4178 9.6394 67.6681 9.62896 67.9678C9.61669 68.3247 9.71854 68.6078 9.93461 68.8171C10.1481 69.0237 10.4316 69.1331 10.7853 69.1454L14.6946 69.2811L14.6444 70.7318L10.6046 70.5916C10.2808 70.5804 10.0189 70.6696 9.81906 70.859C9.61918 71.0457 9.51388 71.2958 9.50296 71.6091C9.49568 71.8216 9.54339 72.017 9.64611 72.1951C9.74624 72.3732 9.89235 72.5173 10.0847 72.6276C10.2743 72.7379 10.4982 72.7975 10.7567 72.8064L14.568 72.9388L14.5168 74.4182ZM15.7237 60.1951L15.3343 61.7668L7.92726 56.8884L8.3776 55.0707L17.2035 54.2219L16.8141 55.7936L9.82471 56.3614L9.80899 56.4249L15.7237 60.1951ZM12.5543 59.3528L13.6162 55.0663L14.7972 55.3597L13.7353 59.6462L12.5543 59.3528ZM18.611 50.9321C18.3827 51.5159 18.0587 51.967 17.6388 52.2854C17.22 52.6013 16.7408 52.7837 16.2014 52.8326C15.6603 52.878 15.0945 52.7848 14.504 52.5532C13.9109 52.3204 13.4322 52.0009 13.0679 51.5944C12.701 51.187 12.4723 50.7254 12.3817 50.2097C12.2895 49.6904 12.3551 49.1452 12.5785 48.5741C12.7642 48.0994 13.016 47.7136 13.3338 47.4167C13.6501 47.1163 14.0094 46.9191 14.4115 46.825C14.8113 46.73 15.2274 46.7499 15.66 46.8844L15.1447 48.2019C14.8425 48.1448 14.5585 48.1797 14.2925 48.3067C14.0249 48.4301 13.8262 48.6581 13.6961 48.9906C13.5859 49.2723 13.5651 49.5497 13.6338 49.8226C13.6999 50.0944 13.8503 50.3452 14.085 50.5749C14.3206 50.8021 14.6349 50.9926 15.0277 51.1468C15.4256 51.3029 15.7906 51.3788 16.1227 51.3744C16.4522 51.369 16.7355 51.2913 16.9725 51.1413C17.208 50.9877 17.3818 50.7675 17.494 50.4807C17.5735 50.2776 17.6064 50.0812 17.593 49.8915C17.578 49.6981 17.5183 49.5181 17.4139 49.3513C17.3097 49.1844 17.1603 49.0394 16.9658 48.9163L17.4811 47.599C17.8813 47.7941 18.1999 48.0596 18.4369 48.3955C18.6712 48.7305 18.8074 49.1148 18.8454 49.5483C18.8808 49.9809 18.8027 50.4422 18.611 50.9321ZM20.9516 45.7518C20.7659 46.1037 20.5359 46.3875 20.2619 46.6031C19.9868 46.8152 19.682 46.9374 19.3476 46.97C19.0145 47.0003 18.6662 46.9192 18.3029 46.7267C17.9902 46.5611 17.762 46.3662 17.6185 46.1422C17.4751 45.9182 17.3948 45.6737 17.3777 45.4087C17.3606 45.1436 17.3869 44.8693 17.4567 44.5855C17.5254 44.298 17.6165 44.0117 17.7301 43.7265C17.8682 43.3833 17.9775 43.1035 18.0579 42.887C18.1359 42.6693 18.1702 42.4993 18.1608 42.3772C18.1503 42.2513 18.0824 42.1553 17.9573 42.089L17.9356 42.0776C17.6637 41.9335 17.4106 41.9027 17.1761 41.9852C16.9416 42.0677 16.7443 42.2607 16.584 42.5644C16.4148 42.8849 16.3503 43.1761 16.3906 43.438C16.4322 43.6975 16.5308 43.91 16.6866 44.0759L15.8681 45.2059C15.5821 44.9311 15.3846 44.6229 15.2755 44.2814C15.164 43.9386 15.1363 43.577 15.1924 43.1967C15.2462 42.8149 15.3754 42.43 15.5803 42.0421C15.7215 41.7745 15.8934 41.5248 16.096 41.2929C16.2985 41.0609 16.5299 40.8735 16.7901 40.7306C17.0478 40.5865 17.3344 40.5132 17.6498 40.5107C17.9666 40.5057 18.309 40.6007 18.6772 40.7957L22.3877 42.7608L21.7234 44.0189L20.9619 43.6155L20.9389 43.6589C21.051 43.8199 21.1362 44.0085 21.1945 44.2245C21.2518 44.4368 21.2641 44.673 21.2314 44.9332C21.1976 45.1898 21.1043 45.4626 20.9516 45.7518ZM20.1709 44.9035C20.3096 44.6409 20.3781 44.3857 20.3765 44.1381C20.3723 43.8892 20.311 43.6671 20.1925 43.4717C20.0752 43.2739 19.9143 43.1208 19.7099 43.0125L19.0565 42.6666C19.0686 42.7253 19.0629 42.8118 19.0396 42.9259C19.0176 43.0376 18.9856 43.1594 18.9436 43.2914C18.9017 43.4233 18.858 43.5529 18.8125 43.6798C18.7669 43.8069 18.7273 43.9169 18.6935 44.01C18.6169 44.2193 18.5679 44.4169 18.5467 44.6031C18.5254 44.7891 18.5454 44.9554 18.6065 45.102C18.6654 45.2472 18.779 45.3644 18.9475 45.4537C19.1881 45.5811 19.4162 45.5894 19.6318 45.4784C19.8474 45.3675 20.0271 45.1759 20.1709 44.9035ZM24.5874 39.6526C24.3046 40.0567 23.9479 40.3457 23.5172 40.5193C23.0865 40.6931 22.6091 40.7342 22.0848 40.6426C21.5606 40.5509 21.0165 40.3072 20.4525 39.9113C19.8819 39.5108 19.466 39.0792 19.2048 38.6162C18.9431 38.1495 18.8243 37.685 18.8487 37.2228C18.8708 36.7589 19.0201 36.3294 19.2966 35.9342C19.5075 35.6328 19.7322 35.421 19.9707 35.2988C20.2069 35.1749 20.4362 35.1062 20.6585 35.0925C20.8786 35.0771 21.0729 35.0821 21.2415 35.1071L21.2767 35.0569L18.7154 33.2592L19.566 32.0437L26.4139 36.85L25.5798 38.0421L24.7705 37.4742L24.7189 37.5479C24.8001 37.698 24.8695 37.8815 24.9271 38.0984C24.9825 38.3138 24.9913 38.5529 24.9534 38.816C24.9157 39.0791 24.7936 39.3579 24.5874 39.6526ZM23.831 38.6174C24.0107 38.3607 24.0946 38.0934 24.0829 37.8155C24.069 37.5361 23.97 37.2619 23.7861 36.993C23.602 36.724 23.3439 36.4729 23.0118 36.2398C22.6796 36.0067 22.3581 35.8509 22.0473 35.7725C21.738 35.692 21.4522 35.6944 21.1897 35.7798C20.9287 35.863 20.7068 36.0352 20.524 36.2964C20.3351 36.5665 20.2475 36.8412 20.2614 37.1207C20.2753 37.4 20.3739 37.6724 20.5573 37.9376C20.7407 38.2027 20.9917 38.4473 21.3105 38.6709C21.6315 38.8963 21.95 39.0515 22.266 39.1368C22.5812 39.2183 22.8746 39.2195 23.146 39.1403C23.4167 39.0574 23.645 38.8831 23.831 38.6174ZM29.3271 33.6267C28.908 34.0963 28.4487 34.4145 27.9491 34.5816C27.4493 34.7447 26.9381 34.757 26.4157 34.6183C25.8912 34.4778 25.3844 34.1886 24.8953 33.7507C24.4143 33.3201 24.0739 32.8507 23.8739 32.3426C23.6737 31.8305 23.62 31.3181 23.7128 30.8051C23.8035 30.2903 24.0485 29.8093 24.4476 29.3622C24.7052 29.0736 24.995 28.8431 25.3169 28.6705C25.6387 28.4942 25.9839 28.3937 26.3527 28.3692C26.7232 28.3426 27.1085 28.406 27.5084 28.5592C27.9063 28.7108 28.3102 28.9699 28.7201 29.337L29.058 29.6396L25.6319 33.4777L24.8891 32.8127L27.3709 30.0324C27.1581 29.8455 26.9296 29.7231 26.6854 29.6654C26.4391 29.6058 26.1967 29.6137 25.9579 29.6888C25.7211 29.7619 25.5083 29.9041 25.3196 30.1155C25.1182 30.3411 24.9961 30.5883 24.9533 30.8572C24.9086 31.1242 24.9318 31.3845 25.0231 31.6381C25.1141 31.8878 25.2633 32.1073 25.4704 32.2965L26.1188 32.877C26.3907 33.1205 26.6686 33.2797 26.9523 33.3545C27.2339 33.4275 27.5064 33.4209 27.7695 33.3347C28.0306 33.2467 28.2683 33.0828 28.4823 32.8429C28.6257 32.6824 28.7331 32.5171 28.8045 32.3471C28.8739 32.1752 28.9066 32.0015 28.9026 31.826C28.8985 31.6506 28.8524 31.4794 28.764 31.3125L29.7995 30.3857C30.0134 30.6942 30.1401 31.0307 30.1798 31.3954C30.2193 31.7561 30.1687 32.1277 30.0281 32.5101C29.8855 32.8908 29.6518 33.263 29.3271 33.6267ZM32.0029 30.6139L27.9965 25.7813L29.0835 24.8775L29.7642 25.6986L29.8208 25.6516C29.6918 25.2912 29.6792 24.9367 29.783 24.5882C29.8851 24.2376 30.0973 23.9281 30.4198 23.66C30.7465 23.3884 31.088 23.239 31.4443 23.2121C31.8008 23.1813 32.1383 23.2639 32.4565 23.4599L32.5067 23.4182C32.3909 23.0609 32.3937 22.6972 32.5149 22.327C32.6365 21.9531 32.8722 21.6208 33.222 21.3299C33.666 20.9607 34.1448 20.7999 34.6584 20.8476C35.172 20.8954 35.6523 21.1887 36.0992 21.7278L38.7883 24.9714L37.648 25.9197L35.1049 22.8521C34.8563 22.5523 34.595 22.3992 34.3211 22.3931C34.0454 22.385 33.7924 22.4766 33.562 22.6683C33.2876 22.8964 33.1443 23.1608 33.1319 23.4618C33.1198 23.7588 33.2268 24.0436 33.4529 24.3162L35.9517 27.3303L34.8365 28.2576L32.2542 25.1429C32.0473 24.8933 31.8068 24.7568 31.5325 24.7333C31.2603 24.7079 31.0038 24.7954 30.763 24.9957C30.5997 25.1316 30.4857 25.2971 30.4213 25.4925C30.355 25.6858 30.3447 25.891 30.3903 26.1082C30.4342 26.3232 30.5387 26.5304 30.7039 26.7297L33.14 29.6683L32.0029 30.6139ZM41.8338 25.7816C41.662 25.8869 41.4944 25.9705 41.3312 26.0323C41.1716 26.0949 41.0382 26.1352 40.9309 26.1529L40.6223 24.99C40.8385 24.9311 41.0177 24.8564 41.1603 24.7658C41.3028 24.6752 41.4016 24.5523 41.4567 24.397C41.5156 24.2427 41.5215 24.0409 41.4745 23.7916L41.4055 23.436L36.1233 19.1564L37.4606 18.3366L41.1661 21.6265L41.2218 21.5925L39.9853 16.7887L41.3261 15.9668L42.8551 23.2856C42.9287 23.6305 42.9449 23.9546 42.9037 24.258C42.8638 24.5636 42.7571 24.8432 42.5834 25.0968C42.4133 25.3512 42.1635 25.5795 41.8338 25.7816ZM50.4463 18.8263C49.9143 19.0358 49.4192 19.1194 48.961 19.0772C48.5027 19.0351 48.1056 18.8912 47.7693 18.6458C47.4347 18.3968 47.1861 18.0655 47.0237 17.652C46.9011 17.3399 46.8559 17.0384 46.888 16.7475C46.9225 16.4556 47.0122 16.1625 47.157 15.8682C47.3043 15.5729 47.4875 15.265 47.7068 14.9443L48.7171 13.4611C48.868 13.2493 48.9664 13.0494 49.0125 12.8613C49.0611 12.6723 49.0466 12.4788 48.9689 12.281C48.9031 12.1135 48.77 11.9829 48.5693 11.8891C48.3712 11.7942 48.1493 11.7952 47.9036 11.892C47.7389 11.9568 47.6087 12.0535 47.5129 12.182C47.4187 12.3071 47.3605 12.4457 47.3384 12.5979C47.3188 12.7492 47.3363 12.8945 47.3912 13.0342C47.4579 13.2041 47.5725 13.3581 47.7349 13.4963C47.8999 13.6334 48.0953 13.766 48.321 13.8939C48.5493 14.0207 48.7921 14.1551 49.0496 14.2968L54.3837 17.1438L52.8942 17.7304L48.4962 15.4462C48.1672 15.2712 47.8471 15.0969 47.5363 14.9235C47.228 14.7491 46.9524 14.5501 46.7095 14.3264C46.4683 14.0991 46.2838 13.8231 46.1564 13.4984C46.0119 13.1306 45.9678 12.7686 46.024 12.4125C46.0791 12.0539 46.2258 11.731 46.464 11.4439C46.7048 11.1557 47.0304 10.9308 47.4408 10.7692C47.8512 10.6076 48.2352 10.5501 48.5928 10.5967C48.9504 10.6434 49.2618 10.7698 49.527 10.9759C49.7921 11.1819 49.987 11.4435 50.1116 11.7607C50.256 12.1286 50.2943 12.4943 50.2265 12.8579C50.1576 13.2189 50.0073 13.5812 49.7757 13.9449L48.6554 15.7175C48.4707 16.007 48.3604 16.2702 48.3247 16.5069C48.288 16.741 48.2959 16.9254 48.3487 17.0598C48.4294 17.2654 48.5546 17.4314 48.7242 17.5579C48.8938 17.6844 49.0923 17.7616 49.3196 17.7892C49.5485 17.8133 49.7895 17.7755 50.0428 17.6757C50.3215 17.566 50.572 17.3956 50.7942 17.1645C51.0154 16.9309 51.1917 16.6535 51.323 16.3323C51.4542 16.0112 51.522 15.6622 51.5262 15.2856C51.5295 14.9065 51.4529 14.5177 51.2965 14.1194L52.4782 13.654C52.6715 14.1462 52.7853 14.5964 52.8199 15.0046C52.8533 15.4103 52.8333 15.7727 52.7597 16.0917C52.6851 16.4081 52.5808 16.6791 52.4471 16.9047C52.4032 16.9717 52.3619 17.0378 52.3231 17.1029C52.2843 17.168 52.243 17.234 52.1991 17.3011C52.0231 17.6575 51.7745 17.9664 51.4529 18.2277C51.1339 18.4881 50.7984 18.6876 50.4463 18.8263ZM58.0072 16.1602L56.4155 7.93852L59.494 7.34078C60.1246 7.21834 60.675 7.22534 61.1451 7.3617C61.6178 7.49768 62.0021 7.74238 62.2978 8.0959C62.5958 8.44625 62.7956 8.88374 62.8972 9.40826C62.9992 9.93557 62.9756 10.415 62.8263 10.8466C62.6791 11.2751 62.4095 11.6371 62.0175 11.9325C61.625 12.2254 61.1134 12.4331 60.4828 12.5555L58.2901 12.9812L58.0508 11.7447L60.043 11.3579C60.4117 11.2863 60.7039 11.1768 60.9193 11.0294C61.1343 10.8794 61.2788 10.6945 61.3526 10.4747C61.4287 10.2516 61.4385 9.9942 61.3819 9.70248C61.3255 9.41076 61.2198 9.17306 61.0651 8.9893C60.9098 8.80284 60.7041 8.67896 60.4482 8.61754C60.1918 8.55344 59.8779 8.55747 59.5064 8.62964L58.1436 8.8943L59.4944 15.8714L58.0072 16.1602ZM61.5269 11.6112L64.2804 14.9421L62.6209 15.2644L59.9035 11.9265L61.5269 11.6112ZM67.9805 14.7836C67.3533 14.8279 66.8024 14.7355 66.3279 14.5067C65.8558 14.2749 65.4807 13.927 65.2024 13.4629C64.924 12.9962 64.7618 12.435 64.7156 11.7797C64.6703 11.1351 64.7527 10.5609 64.9628 10.0569C65.1754 9.5499 65.4935 9.14485 65.9169 8.84171C66.3402 8.53578 66.8506 8.36171 67.4479 8.31958C67.8334 8.29233 68.2018 8.32918 68.5526 8.43013C68.9061 8.5282 69.2236 8.6971 69.5052 8.9369C69.7894 9.17642 70.0217 9.49069 70.2019 9.87972C70.3819 10.2661 70.4912 10.7339 70.5299 11.2832L70.5617 11.736L65.4338 12.0979L65.3638 11.1026L69.0784 10.8404C69.0558 10.5578 68.977 10.3106 68.842 10.0987C68.7068 9.88414 68.5275 9.72052 68.304 9.60786C68.0832 9.49501 67.8316 9.44857 67.5492 9.46843C67.2478 9.48973 66.9882 9.58186 66.7705 9.7448C66.5526 9.90505 66.3881 10.1079 66.2771 10.3535C66.1686 10.5962 66.1229 10.8577 66.1399 11.138L66.201 12.0069C66.2267 12.3713 66.3152 12.6793 66.4666 12.931C66.6179 13.1799 66.8179 13.3653 67.0665 13.4871C67.3151 13.6063 67.5995 13.6544 67.92 13.6319C68.1345 13.6167 68.3265 13.5731 68.4961 13.501C68.6654 13.4263 68.8097 13.3244 68.9289 13.1958C69.0481 13.0672 69.1341 12.9121 69.1868 12.7307L70.5744 12.7886C70.5131 13.1592 70.3699 13.489 70.1446 13.7782C69.9219 14.0645 69.6271 14.2958 69.2602 14.4719C68.8932 14.6454 68.4666 14.7494 67.9805 14.7836ZM77.1429 10.0532L75.7905 10.1439C75.7581 10.0061 75.6969 9.87531 75.6067 9.75152C75.5192 9.62773 75.3981 9.52582 75.2435 9.44569C75.0888 9.36547 74.8973 9.32065 74.6688 9.31106C74.3615 9.2982 74.1003 9.35405 73.8853 9.4788C73.673 9.60354 73.5638 9.77224 73.5577 9.9848C73.5473 10.1672 73.6078 10.3185 73.739 10.4386C73.8729 10.5587 74.0974 10.6623 74.4126 10.7492L75.4718 11.0228C76.0593 11.1757 76.4915 11.3971 76.7681 11.687C77.0475 11.977 77.1791 12.3468 77.1631 12.7963C77.1439 13.1911 77.0138 13.535 76.7727 13.8277C76.5344 14.1178 76.2105 14.3389 75.8009 14.4909C75.3914 14.6429 74.9255 14.708 74.4034 14.6861C73.6364 14.654 73.0257 14.4674 72.5714 14.1264C72.1171 13.7827 71.8572 13.3201 71.7916 12.739L73.2375 12.6604C73.2909 12.9464 73.4207 13.166 73.6268 13.3193C73.8329 13.4725 74.1059 13.5563 74.4458 13.5706C74.7967 13.5853 75.0812 13.5249 75.2993 13.3894C75.5203 13.254 75.6352 13.0801 75.644 12.8677C75.6516 12.6879 75.5884 12.5366 75.4546 12.4137C75.3235 12.2908 75.1151 12.192 74.8295 12.1173L73.77 11.8478C73.1741 11.6973 72.7384 11.4676 72.4624 11.1586C72.1867 10.8469 72.0597 10.4623 72.0815 10.0049C72.095 9.61794 72.2137 9.28726 72.4377 9.0129C72.6645 8.73596 72.9715 8.52782 73.3588 8.38849C73.7488 8.24656 74.1941 8.1861 74.6945 8.20712C75.4288 8.23783 76.0002 8.41871 76.4087 8.74959C76.8198 9.08065 77.0646 9.51517 77.1429 10.0532ZM81.0128 15.3733C80.3918 15.2742 79.876 15.0593 79.4655 14.7288C79.0582 14.396 78.7714 13.9721 78.6054 13.457C78.4397 12.9392 78.4085 12.3558 78.5117 11.707C78.6132 11.069 78.8234 10.5282 79.1419 10.085C79.4637 9.63943 79.8651 9.31701 80.3461 9.11769C80.8275 8.9157 81.3639 8.86196 81.9553 8.95629C82.3369 9.01722 82.6873 9.13669 83.0063 9.31461C83.3284 9.49022 83.5995 9.72676 83.8196 10.024C84.0423 10.3219 84.1975 10.6807 84.2851 11.1004C84.373 11.5176 84.3737 11.998 84.2872 12.5419L84.2159 12.9901L79.1394 12.1798L79.2961 11.1945L82.9735 11.7814C83.0154 11.501 82.9945 11.2424 82.911 11.0053C82.8278 10.7657 82.6901 10.5657 82.4979 10.4053C82.3083 10.2452 82.0738 10.1429 81.7942 10.0983C81.4959 10.0507 81.2222 10.0816 80.9733 10.1909C80.7247 10.2975 80.5186 10.4579 80.3551 10.672C80.1946 10.8838 80.0909 11.1281 80.0441 11.4049L79.9072 12.2651C79.8498 12.6258 79.8664 12.946 79.957 13.2255C80.048 13.5023 80.2009 13.7281 80.4156 13.9032C80.6307 14.0756 80.8969 14.187 81.2141 14.2377C81.4265 14.2716 81.6234 14.2726 81.8049 14.2409C81.9867 14.2064 82.1503 14.1401 82.2954 14.0417C82.4406 13.9435 82.5594 13.812 82.6518 13.6473L83.9902 14.0182C83.8468 14.3653 83.6328 14.6541 83.348 14.8847C83.0663 15.1131 82.7269 15.2715 82.3297 15.3599C81.9329 15.4457 81.4938 15.4501 81.0128 15.3733ZM86.7003 16.586C86.3177 16.4782 85.9923 16.3129 85.7241 16.09C85.4592 15.8653 85.2757 15.5926 85.1735 15.2721C85.0738 14.9523 85.0797 14.5943 85.191 14.1981C85.2869 13.8569 85.429 13.5926 85.6175 13.4049C85.806 13.2172 86.0277 13.0872 86.2827 13.0147C86.5379 12.9421 86.8113 12.9101 87.1029 12.9187C87.3979 12.9253 87.6966 12.9543 87.999 13.0056C88.363 13.0685 88.6592 13.1165 88.8874 13.1497C89.1163 13.1802 89.2895 13.178 89.4067 13.1432C89.5274 13.1063 89.6068 13.0197 89.6451 12.8832L89.6518 12.8596C89.7351 12.5631 89.7118 12.3087 89.582 12.0965C89.4521 11.8843 89.2222 11.7318 88.892 11.6387C88.5435 11.5405 88.2456 11.5387 87.9985 11.6333C87.754 11.7286 87.5672 11.87 87.4383 12.0574L86.1629 11.4941C86.3709 11.1562 86.6301 10.8979 86.9404 10.7191C87.2515 10.5377 87.5987 10.4345 87.9818 10.4094C88.3658 10.3816 88.7686 10.4272 89.1905 10.5461C89.4814 10.628 89.7613 10.7438 90.0304 10.8933C90.2994 11.0427 90.531 11.2297 90.7253 11.4544C90.9202 11.6764 91.0522 11.9416 91.1211 12.2499C91.1926 12.5589 91.172 12.9142 91.0591 13.3157L89.9221 17.3623L88.5544 16.9768L88.7878 16.1463L88.7406 16.1329C88.6069 16.2765 88.4408 16.3996 88.2424 16.5023C88.0472 16.603 87.8192 16.6648 87.5583 16.6876C87.3007 16.7085 87.0148 16.6746 86.7003 16.586ZM87.3639 15.6431C87.6496 15.7236 87.9131 15.7369 88.1544 15.6832C88.3964 15.6267 88.6003 15.5199 88.7661 15.3627C88.9345 15.2063 89.05 15.0165 89.1127 14.7935L89.3128 14.081C89.258 14.1052 89.1725 14.1178 89.0561 14.1191C88.9425 14.121 88.8168 14.1154 88.6792 14.1021C88.5415 14.0888 88.4059 14.0732 88.2724 14.0554C88.1388 14.0376 88.023 14.022 87.925 14.0084C87.7047 13.9775 87.5014 13.9712 87.3153 13.9895C87.1292 14.0079 86.971 14.0625 86.8409 14.1533C86.7115 14.2413 86.621 14.3773 86.5694 14.561C86.4956 14.8234 86.5356 15.0485 86.6893 15.2363C86.843 15.424 87.0679 15.5596 87.3639 15.6431ZM91.326 17.8315L93.5806 11.9703L94.9182 12.4862L94.5416 13.4631L94.6029 13.4866C94.8396 13.1894 95.1232 12.9992 95.4528 12.916C95.7853 12.8313 96.1197 12.8536 96.4551 12.9829C96.5308 13.0123 96.6151 13.0489 96.7061 13.0928C96.8 13.1351 96.8767 13.1749 96.9361 13.2122L96.4474 14.4829C96.3966 14.44 96.3104 14.3863 96.1897 14.3221C96.0718 14.2563 95.9549 14.2009 95.838 14.1557C95.586 14.0587 95.3388 14.0262 95.0964 14.0583C94.8568 14.0886 94.6432 14.1771 94.4563 14.3239C94.2685 14.4706 94.1267 14.6686 94.0309 14.9179L92.7053 18.3636L91.326 17.8315ZM97.6959 20.7895C97.1363 20.5075 96.7176 20.1424 96.4407 19.6942C96.1657 19.2473 96.0287 18.7525 96.0296 18.2099C96.0354 17.6662 96.1801 17.1107 96.4656 16.5433C96.7521 15.9735 97.1143 15.5259 97.5522 15.2004C97.991 14.8724 98.472 14.6872 98.9923 14.6448C99.5173 14.6011 100.053 14.7172 100.6 14.9931C101.055 15.2224 101.415 15.5093 101.681 15.8538C101.95 16.1971 102.113 16.5738 102.169 16.9835C102.226 17.3909 102.168 17.8041 101.994 18.223L100.732 17.5866C100.817 17.2906 100.808 17.0042 100.707 16.7271C100.609 16.4488 100.401 16.2294 100.083 16.0688C99.8125 15.9328 99.5384 15.8862 99.2615 15.9293C98.9846 15.97 98.7211 16.0967 98.471 16.3093C98.2238 16.5232 98.0044 16.8189 97.8147 17.1963C97.6231 17.5786 97.5138 17.9355 97.487 18.267C97.4621 18.5962 97.5129 18.8859 97.6403 19.1361C97.7706 19.3852 97.9737 19.579 98.2478 19.7176C98.4423 19.8156 98.6349 19.8668 98.8246 19.871C99.0181 19.874 99.2031 19.8312 99.3784 19.7427C99.5538 19.6541 99.7119 19.5186 99.8527 19.3362L101.115 19.9724C100.883 20.3534 100.59 20.6465 100.233 20.8514C99.8786 21.0541 99.4838 21.1542 99.0498 21.1517C98.6157 21.1469 98.1644 21.0261 97.6959 20.7895ZM104.442 20.2524L102.421 23.3256L101.186 22.5111L105.788 15.518L106.994 16.3145L105.258 18.954L105.319 18.9945C105.636 18.7795 105.98 18.6715 106.349 18.6702C106.722 18.6682 107.108 18.7992 107.508 19.0632C107.872 19.3032 108.139 19.5887 108.309 19.9198C108.479 20.2507 108.541 20.6118 108.496 21.003C108.453 21.3956 108.292 21.8037 108.013 22.2271L105.816 25.5666L104.582 24.7521L106.654 21.6038C106.886 21.251 106.975 20.9167 106.922 20.6009C106.873 20.2843 106.685 20.0188 106.361 19.8043C106.142 19.6604 105.916 19.5792 105.68 19.5608C105.448 19.5416 105.225 19.5885 105.01 19.7016C104.798 19.8161 104.609 19.9998 104.442 20.2524ZM118.258 29.3263L117.162 28.2624C117.305 28.0519 117.401 27.8364 117.451 27.6157C117.504 27.3932 117.514 27.1722 117.484 26.9529C117.453 26.7337 117.382 26.5218 117.269 26.3173C117.16 26.1128 117.013 25.9214 116.829 25.7431C116.503 25.4264 116.134 25.2279 115.723 25.1478C115.314 25.0657 114.884 25.1131 114.437 25.2899C113.991 25.4648 113.55 25.7785 113.113 26.2308C112.667 26.6911 112.363 27.148 112.201 27.6017C112.043 28.0554 112.012 28.484 112.107 28.8873C112.205 29.2905 112.417 29.6496 112.742 29.9645C112.922 30.1389 113.113 30.2786 113.315 30.3833C113.52 30.4879 113.731 30.5539 113.947 30.5813C114.165 30.6106 114.383 30.5984 114.602 30.5448C114.823 30.493 115.035 30.3952 115.239 30.2511L116.33 31.3209C116.012 31.567 115.663 31.7491 115.285 31.8669C114.907 31.9868 114.516 32.0364 114.112 32.0159C113.709 31.9935 113.309 31.8939 112.911 31.7171C112.516 31.5383 112.139 31.2755 111.782 30.9284C111.253 30.4164 110.9 29.8369 110.723 29.1901C110.545 28.5432 110.56 27.873 110.768 27.1794C110.977 26.4859 111.394 25.816 112.018 25.1697C112.645 24.5215 113.301 24.0839 113.987 23.8569C114.675 23.6281 115.343 23.5923 115.995 23.7495C116.646 23.9067 117.234 24.2395 117.758 24.7478C118.092 25.0721 118.358 25.4206 118.554 25.7934C118.751 26.1662 118.873 26.5528 118.922 26.9529C118.973 27.3513 118.943 27.7517 118.835 28.1546C118.729 28.5572 118.537 28.9479 118.258 29.3263ZM116.897 36.5538C116.507 36.0596 116.274 35.5517 116.195 35.0301C116.12 34.5089 116.197 34.0024 116.423 33.5108C116.651 33.0176 117.023 32.5672 117.537 32.1601C118.044 31.7596 118.565 31.5044 119.098 31.3945C119.637 31.285 120.149 31.3202 120.638 31.5C121.129 31.678 121.56 32.0023 121.932 32.473C122.171 32.7768 122.347 33.1023 122.462 33.4496C122.58 33.7974 122.62 34.1552 122.58 34.5233C122.543 34.8934 122.415 35.2627 122.195 35.6308C121.978 35.9974 121.653 36.3513 121.222 36.6926L120.866 36.9739L117.679 32.9337L118.461 32.3152L120.769 35.242C120.99 35.0641 121.15 34.8597 121.248 34.6287C121.349 34.396 121.384 34.1554 121.35 33.9069C121.319 33.6607 121.216 33.4263 121.041 33.2037C120.853 32.9663 120.63 32.8034 120.374 32.7149C120.119 32.6247 119.859 32.6029 119.594 32.6494C119.332 32.6962 119.091 32.8056 118.869 32.9776L118.187 33.5174C117.901 33.7438 117.697 33.9905 117.574 34.2576C117.453 34.5229 117.413 34.7929 117.452 35.0673C117.494 35.34 117.615 35.6027 117.813 35.8551C117.947 36.024 118.091 36.1585 118.247 36.2582C118.404 36.3563 118.568 36.4184 118.742 36.4446C118.915 36.4708 119.092 36.4546 119.271 36.3962L120.004 37.5772C119.664 37.7351 119.311 37.8023 118.946 37.7787C118.584 37.7556 118.227 37.6419 117.876 37.4374C117.525 37.2312 117.199 36.9367 116.897 36.5538ZM123.326 39.0396L120.193 40.9625L119.42 39.7003L124.768 36.4186L125.506 37.6251L124.597 38.1827L124.636 38.2454C125.01 38.1849 125.369 38.2353 125.71 38.3967C126.053 38.5604 126.347 38.8421 126.591 39.242C126.817 39.6115 126.935 39.982 126.946 40.353C126.956 40.7265 126.858 41.0807 126.652 41.4155C126.446 41.7527 126.129 42.0512 125.701 42.3109L122.296 44.4004L121.523 43.1382L124.733 41.1683C125.091 40.949 125.314 40.6844 125.402 40.3745C125.491 40.067 125.437 39.7505 125.237 39.425C125.102 39.2042 124.934 39.0377 124.731 38.9255C124.532 38.8142 124.312 38.7653 124.071 38.7788C123.832 38.7945 123.583 38.8815 123.326 39.0396ZM130.021 45.8075L128.991 46.3055L127.424 43.0542L128.453 42.5561L130.021 45.8075ZM130.193 42.7043L130.836 44.0372L125.534 46.6021C125.355 46.6887 125.232 46.7821 125.162 46.8823C125.095 46.9839 125.068 47.0883 125.077 47.1957C125.087 47.3031 125.118 47.4121 125.171 47.5226C125.211 47.6061 125.255 47.6792 125.3 47.742C125.346 47.8072 125.384 47.8559 125.411 47.888L124.479 48.616C124.42 48.5567 124.344 48.4678 124.25 48.3495C124.158 48.2336 124.064 48.0823 123.969 47.8957C123.797 47.5666 123.702 47.2416 123.684 46.9206C123.668 46.5985 123.739 46.302 123.899 46.0311C124.06 45.7626 124.316 45.5442 124.671 45.3758L130.193 42.7043ZM125.662 52.2719C125.444 51.6812 125.378 51.1256 125.465 50.6053C125.555 50.0867 125.783 49.6285 126.15 49.2312C126.52 48.8329 127.013 48.5199 127.628 48.2922C128.233 48.0683 128.807 47.9868 129.349 48.0479C129.894 48.1105 130.372 48.303 130.781 48.6254C131.192 48.9468 131.502 49.3888 131.71 49.9514C131.844 50.3145 131.911 50.6789 131.913 51.0446C131.918 51.4119 131.845 51.7644 131.693 52.1022C131.543 52.4426 131.307 52.7538 130.984 53.0358C130.664 53.317 130.247 53.553 129.731 53.7438L129.306 53.9011L127.524 49.0719L128.459 48.726L129.749 52.2243C130.014 52.1235 130.228 51.9786 130.394 51.7896C130.562 51.5996 130.668 51.3814 130.714 51.1349C130.76 50.891 130.734 50.6361 130.637 50.3702C130.532 50.0864 130.371 49.8625 130.154 49.6987C129.939 49.534 129.698 49.4326 129.432 49.3946C129.17 49.3582 128.906 49.3875 128.642 49.4822L127.826 49.7841C127.484 49.9107 127.213 50.082 127.015 50.298C126.818 50.513 126.697 50.7571 126.65 51.0303C126.605 51.3027 126.638 51.5897 126.749 51.8914C126.824 52.0934 126.919 52.2658 127.036 52.4087C127.155 52.5507 127.293 52.6609 127.45 52.7396C127.606 52.8182 127.778 52.8575 127.967 52.8574L128.301 54.2078C127.928 54.2526 127.571 54.2071 127.231 54.0715C126.895 53.9374 126.59 53.7186 126.319 53.4152C126.05 53.1107 125.831 52.7296 125.662 52.2719ZM127.102 56.0423L133.174 54.4707L133.532 55.8604L132.52 56.1223L132.537 56.1857C132.916 56.2058 133.235 56.326 133.495 56.5461C133.757 56.7682 133.934 57.0533 134.023 57.4018C134.044 57.481 134.062 57.5704 134.079 57.6701C134.1 57.7718 134.113 57.8573 134.117 57.9267L132.8 58.2674C132.805 58.2012 132.799 58.1001 132.781 57.964C132.766 57.83 132.743 57.7022 132.711 57.5808C132.644 57.3195 132.527 57.0992 132.359 56.9201C132.195 56.7428 132 56.6204 131.771 56.5528C131.543 56.4852 131.3 56.4848 131.042 56.5516L127.472 57.4755L127.102 56.0423ZM128.668 63.352L136.989 62.5215L137.301 65.6466C137.364 66.2867 137.299 66.8358 137.103 67.2936C136.909 67.7542 136.614 68.1164 136.219 68.3805C135.826 68.6471 135.366 68.8067 134.838 68.8594C134.304 68.9126 133.82 68.8474 133.383 68.6636C132.946 68.4797 132.586 68.18 132.304 67.7643C132.025 67.3483 131.853 66.8189 131.789 66.1761L131.583 64.1049L132.822 63.9812L133.008 65.849C133.045 66.2233 133.141 66.5234 133.294 66.7491C133.449 66.9748 133.644 67.1333 133.884 67.2246C134.122 67.3185 134.39 67.3507 134.685 67.3213C134.98 67.2918 135.235 67.2075 135.447 67.0684C135.661 66.9321 135.818 66.737 135.919 66.4831C136.022 66.2317 136.055 65.9174 136.018 65.5403L135.881 64.1569L128.819 64.8615L128.668 63.352ZM135.454 76.4016L129.232 74.0312L129.266 72.3958L135.584 70.2937L135.551 71.8718L130.863 73.2153L130.861 73.2807L135.488 74.8276L135.454 76.4016ZM134.976 81.1015L133.84 80.9735L134.243 77.3853L135.378 77.5133L134.976 81.1015ZM136.773 78.5676L136.607 80.0385L130.756 79.3791C130.559 79.3568 130.404 79.3696 130.292 79.4173C130.182 79.468 130.103 79.5414 130.053 79.6373C130.004 79.7333 129.973 79.8422 129.959 79.9642C129.949 80.0562 129.946 80.141 129.951 80.2184C129.956 80.2984 129.961 80.3594 129.968 80.4013L128.791 80.5197C128.773 80.4381 128.756 80.3224 128.74 80.1724C128.724 80.0252 128.725 79.8469 128.742 79.6377C128.773 79.2681 128.866 78.9425 129.021 78.6609C129.178 78.3797 129.397 78.1669 129.676 78.0228C129.955 77.8814 130.289 77.834 130.678 77.8807L136.773 78.5676ZM128.3 82.5008C128.345 82.2568 128.469 82.0634 128.672 81.9207C128.875 81.778 129.1 81.7306 129.346 81.7787C129.587 81.8203 129.778 81.9441 129.917 82.15C130.056 82.3558 130.104 82.5807 130.059 82.8247C130.016 83.0606 129.892 83.25 129.689 83.3927C129.485 83.5381 129.263 83.59 129.021 83.5483C128.858 83.5155 128.717 83.4453 128.599 83.3375C128.48 83.2324 128.393 83.1055 128.337 82.9566C128.283 82.811 128.271 82.659 128.3 82.5008ZM127.224 87.4673L135.178 90.0495L134.711 91.4928L127.964 89.3026L126.829 92.8114L125.621 92.4193L127.224 87.4673ZM129.793 98.6846L128.741 98.2355L130.156 94.9142L131.208 95.3633L129.793 98.6846ZM132.24 96.773L131.661 98.1347L126.244 95.822C126.062 95.7443 125.91 95.7126 125.788 95.7261C125.669 95.7424 125.572 95.7904 125.497 95.8681C125.423 95.9458 125.362 96.0408 125.313 96.1541C125.278 96.2395 125.251 96.3201 125.232 96.3949C125.214 96.4736 125.202 96.5331 125.196 96.5753L124.036 96.3508C124.041 96.2673 124.059 96.1512 124.086 96.0034C124.112 95.8575 124.164 95.6867 124.242 95.4919C124.377 95.1465 124.559 94.8615 124.788 94.636C125.02 94.4114 125.289 94.2703 125.599 94.2128C125.906 94.1571 126.24 94.208 126.599 94.3644L132.24 96.773ZM122.27 99.2469C122.509 98.816 122.834 98.4907 123.244 98.2729C123.654 98.055 124.125 97.9639 124.656 98.0004C125.186 98.0368 125.753 98.222 126.355 98.5569C126.965 98.8957 127.424 99.2814 127.731 99.7142C128.041 100.151 128.207 100.601 128.231 101.062C128.257 101.527 128.154 101.969 127.92 102.392C127.742 102.713 127.541 102.947 127.316 103.094C127.094 103.242 126.873 103.334 126.653 103.371C126.436 103.409 126.242 103.425 126.072 103.417L126.042 103.471L128.778 104.991L128.058 106.289L120.746 102.226L121.452 100.952L122.315 101.433L122.359 101.354C122.262 101.213 122.174 101.038 122.095 100.828C122.017 100.62 121.983 100.383 121.993 100.117C122.003 99.8514 122.095 99.5616 122.27 99.2469ZM123.13 100.198C122.979 100.471 122.923 100.746 122.964 101.021C123.007 101.298 123.133 101.56 123.345 101.808C123.556 102.057 123.838 102.279 124.193 102.476C124.548 102.674 124.884 102.795 125.201 102.84C125.517 102.888 125.802 102.855 126.054 102.743C126.305 102.633 126.507 102.439 126.661 102.159C126.821 101.871 126.88 101.588 126.836 101.312C126.793 101.036 126.667 100.776 126.457 100.531C126.247 100.286 125.972 100.069 125.631 99.8802C125.289 99.6902 124.956 99.5684 124.633 99.5165C124.311 99.4686 124.019 99.4983 123.757 99.6058C123.496 99.7161 123.287 99.9138 123.13 100.198ZM119.341 104.268C119.48 104.062 119.671 103.936 119.915 103.887C120.158 103.839 120.382 103.886 120.588 104.029C120.792 104.165 120.917 104.355 120.961 104.6C121.006 104.844 120.959 105.069 120.819 105.274C120.685 105.473 120.496 105.596 120.252 105.645C120.008 105.695 119.782 105.653 119.578 105.517C119.442 105.422 119.343 105.3 119.278 105.154C119.21 105.009 119.182 104.858 119.19 104.699C119.2 104.545 119.25 104.401 119.341 104.268Z" fill="#17254E"/>
<path d="M34.5359 126.812L38.6442 119.518L43.3812 122.194L42.7573 123.301L39.3397 121.371L38.2243 123.351L41.3966 125.143L40.7728 126.25L37.6005 124.459L36.4791 126.45L39.9253 128.396L39.3014 129.504L34.5359 126.812ZM47.0039 127.977L45.7149 127.557C45.7359 127.417 45.7277 127.273 45.6899 127.125C45.6547 126.977 45.5801 126.838 45.4664 126.705C45.3526 126.573 45.1914 126.461 44.9829 126.366C44.7024 126.24 44.4393 126.195 44.1934 126.23C43.9499 126.267 43.7859 126.383 43.7013 126.578C43.624 126.744 43.6239 126.906 43.7011 127.066C43.7807 127.228 43.9507 127.408 44.2109 127.605L45.0926 128.254C45.5813 128.615 45.9002 128.981 46.0493 129.354C46.201 129.727 46.1859 130.12 46.004 130.53C45.8396 130.89 45.5911 131.161 45.2586 131.342C44.9296 131.523 44.5469 131.608 44.1102 131.596C43.6736 131.585 43.217 131.472 42.7404 131.257C42.0404 130.941 41.5428 130.541 41.2477 130.055C40.9538 129.567 40.8842 129.041 41.0391 128.477L42.4104 128.942C42.3538 129.227 42.3927 129.479 42.5271 129.699C42.6615 129.918 42.8839 130.097 43.1941 130.238C43.5143 130.381 43.8008 130.431 44.0537 130.387C44.309 130.343 44.4803 130.225 44.5674 130.031C44.6411 129.867 44.6386 129.703 44.5602 129.539C44.4841 129.376 44.3273 129.207 44.0899 129.031L43.2065 128.386C42.7093 128.025 42.39 127.649 42.2487 127.259C42.1085 126.867 42.1334 126.463 42.3236 126.047C42.4798 125.693 42.7127 125.43 43.0225 125.258C43.3359 125.085 43.6982 125.007 44.1095 125.022C44.5242 125.035 44.96 125.145 45.4168 125.351C46.0869 125.653 46.5502 126.033 46.8065 126.493C47.0652 126.954 47.131 127.448 47.0039 127.977ZM51.4028 127.804L51.023 128.884L47.6225 127.684L48.0022 126.604L51.4028 127.804ZM49.3409 125.481L50.735 125.973L48.7791 131.534C48.713 131.722 48.6906 131.877 48.7119 131.997C48.7366 132.115 48.7901 132.209 48.8724 132.279C48.9548 132.348 49.0537 132.403 49.1692 132.444C49.2565 132.474 49.3383 132.496 49.4148 132.509C49.4937 132.522 49.5543 132.53 49.5965 132.534L49.4475 133.708C49.364 133.708 49.2475 133.698 49.098 133.681C48.951 133.663 48.7778 133.622 48.5783 133.558C48.2255 133.445 47.9295 133.281 47.6904 133.066C47.4522 132.85 47.2943 132.589 47.2168 132.284C47.1418 131.98 47.1708 131.643 47.3036 131.274L49.3409 125.481ZM52.6675 134.738C52.1902 134.615 51.7944 134.383 51.4802 134.04C51.1659 133.699 50.9592 133.265 50.8599 132.742C50.7606 132.218 50.7965 131.622 50.9674 130.954C51.1404 130.278 51.397 129.737 51.7374 129.329C52.0811 128.918 52.4732 128.644 52.9137 128.504C53.3549 128.361 53.8089 128.349 54.2756 128.468C54.6316 128.56 54.9088 128.695 55.107 128.876C55.3061 129.053 55.4512 129.244 55.5424 129.448C55.6344 129.648 55.6983 129.833 55.7343 130L55.7937 130.015L56.57 126.981L58.0057 127.349L55.9303 135.462L54.5222 135.1L54.7674 134.141L54.6804 134.119C54.5687 134.248 54.4218 134.378 54.2394 134.509C54.0578 134.636 53.8374 134.729 53.5783 134.786C53.3191 134.844 53.0156 134.827 52.6675 134.738ZM53.3679 133.664C53.6711 133.742 53.9505 133.727 54.206 133.617C54.4621 133.506 54.6834 133.316 54.8698 133.049C55.0563 132.781 55.1998 132.451 55.3005 132.058C55.4011 131.664 55.4332 131.308 55.3968 130.989C55.3631 130.671 55.26 130.404 55.0876 130.188C54.9178 129.973 54.6786 129.826 54.3702 129.746C54.0511 129.665 53.7635 129.679 53.5074 129.791C53.2512 129.903 53.0316 130.091 52.8485 130.357C52.6654 130.621 52.5256 130.943 52.4289 131.321C52.3316 131.701 52.2989 132.054 52.3307 132.38C52.3657 132.705 52.4681 132.98 52.6378 133.207C52.8107 133.431 53.0542 133.584 53.3679 133.664ZM61.8685 132.342L61.6755 133.545L57.9586 132.947L58.1516 131.744L61.8685 132.342ZM62.4563 136.517L62.5296 135.423L65.6167 132.775C65.9125 132.513 66.16 132.28 66.3593 132.074C66.5586 131.869 66.7112 131.667 66.8172 131.47C66.9232 131.272 66.9839 131.058 66.9995 130.827C67.0172 130.563 66.9725 130.333 66.8656 130.137C66.7589 129.939 66.6044 129.781 66.4021 129.664C66.2 129.546 65.9658 129.478 65.6996 129.46C65.4253 129.442 65.1811 129.483 64.9671 129.583C64.7531 129.681 64.5823 129.83 64.4544 130.028C64.3292 130.228 64.257 130.47 64.2378 130.756L62.7997 130.659C62.8353 130.128 62.9871 129.675 63.255 129.3C63.523 128.925 63.8759 128.644 64.3141 128.457C64.7549 128.271 65.2509 128.196 65.8022 128.234C66.3618 128.271 66.8463 128.409 67.256 128.647C67.6657 128.884 67.9751 129.193 68.1842 129.574C68.3961 129.954 68.4863 130.379 68.455 130.846C68.434 131.159 68.3536 131.463 68.2139 131.757C68.0742 132.05 67.8413 132.371 67.5152 132.718C67.1919 133.065 66.7425 133.481 66.167 133.968L64.6308 135.335L64.627 135.393L68.2609 135.636L68.1762 136.901L62.4563 136.517ZM72.673 136.953C72.0013 136.98 71.4178 136.832 70.9229 136.511C70.4306 136.187 70.0425 135.707 69.7586 135.072C69.4772 134.434 69.3185 133.659 69.2823 132.746C69.2489 131.833 69.3473 131.051 69.5777 130.402C69.8106 129.748 70.1598 129.243 70.625 128.886C71.0931 128.529 71.6617 128.338 72.3308 128.311C72.9998 128.285 73.5818 128.431 74.0766 128.749C74.5714 129.068 74.9594 129.544 75.2405 130.176C75.5244 130.809 75.6843 131.58 75.7204 132.49C75.7566 133.405 75.6584 134.192 75.4256 134.85C75.1956 135.507 74.8465 136.014 74.3785 136.373C73.9134 136.733 73.3449 136.926 72.673 136.953ZM72.6224 135.674C73.1446 135.654 73.5465 135.379 73.828 134.852C74.1122 134.324 74.2342 133.556 74.1945 132.55C74.1681 131.886 74.0767 131.331 73.9201 130.883C73.7634 130.437 73.5541 130.104 73.2921 129.885C73.03 129.664 72.7262 129.56 72.3808 129.573C71.8613 129.595 71.4608 129.869 71.1794 130.399C70.8979 130.926 70.7755 131.688 70.8123 132.685C70.836 133.352 70.9249 133.911 71.0788 134.36C71.2356 134.81 71.445 135.145 71.7071 135.367C71.9692 135.585 72.2742 135.688 72.6224 135.674ZM77.2281 136.531L77.0646 135.447L79.5096 132.194C79.7422 131.875 79.9338 131.593 80.0842 131.35C80.2347 131.107 80.3404 130.878 80.4015 130.661C80.4624 130.445 80.4756 130.222 80.441 129.994C80.4015 129.732 80.3086 129.517 80.1621 129.349C80.0151 129.178 79.8304 129.057 79.6076 128.986C79.3849 128.915 79.1417 128.9 78.878 128.94C78.6061 128.98 78.3765 129.074 78.189 129.217C78.0012 129.359 77.8662 129.541 77.784 129.763C77.7046 129.984 77.6862 130.237 77.7289 130.52L76.3039 130.736C76.2245 130.21 76.2753 129.735 76.4562 129.311C76.6372 128.886 76.9215 128.535 77.3093 128.259C77.6996 127.982 78.1681 127.802 78.7144 127.72C79.2688 127.636 79.7717 127.666 80.2229 127.81C80.674 127.954 81.0427 128.189 81.3287 128.515C81.6174 128.84 81.7967 129.236 81.8667 129.699C81.9134 130.009 81.9002 130.323 81.827 130.64C81.7537 130.957 81.5952 131.32 81.3514 131.729C81.1102 132.138 80.761 132.641 80.3034 133.24L79.0975 134.907L79.106 134.964L82.7072 134.419L82.8964 135.672L77.2281 136.531ZM84.2691 135.383L83.9895 134.324L86.069 130.825C86.2658 130.482 86.4259 130.182 86.5492 129.924C86.6725 129.666 86.7528 129.426 86.7901 129.204C86.8275 128.983 86.8165 128.761 86.7574 128.536C86.69 128.281 86.5743 128.077 86.4106 127.926C86.246 127.772 86.0492 127.673 85.8202 127.625C85.5911 127.579 85.3477 127.59 85.0897 127.658C84.8239 127.728 84.6057 127.845 84.4348 128.009C84.2633 128.171 84.1487 128.365 84.0911 128.595C84.036 128.824 84.0451 129.076 84.1181 129.354L82.7246 129.722C82.5889 129.208 82.5882 128.731 82.7222 128.289C82.8564 127.847 83.1012 127.468 83.4567 127.151C83.815 126.834 84.2612 126.604 84.7955 126.462C85.3376 126.319 85.8407 126.295 86.3048 126.39C86.7689 126.484 87.1607 126.677 87.4803 126.97C87.8024 127.263 88.0232 127.636 88.1429 128.089C88.2229 128.392 88.2436 128.706 88.205 129.028C88.1664 129.352 88.048 129.73 87.8498 130.164C87.6542 130.595 87.3613 131.134 86.9711 131.779L85.9522 133.567L85.9667 133.622L89.488 132.69L89.8114 133.916L84.2691 135.383ZM94.8798 132.036L93.4033 132.696L92.6835 123.847L94.3912 123.084L100.492 129.527L99.0153 130.188L94.2657 125.02L94.2063 125.047L94.8798 132.036ZM93.5921 129.016L97.6192 127.216L98.1146 128.329L94.0884 130.129L93.5921 129.016ZM103.874 127.53L101.445 128.992L97.1382 121.813L99.616 120.322C100.328 119.894 101.025 119.67 101.709 119.65C102.393 119.626 103.034 119.799 103.63 120.168C104.227 120.538 104.748 121.095 105.195 121.841C105.644 122.588 105.891 123.315 105.935 124.019C105.983 124.722 105.833 125.374 105.485 125.975C105.139 126.574 104.602 127.092 103.874 127.53ZM102.069 127.085L103.136 126.443C103.636 126.143 103.998 125.801 104.222 125.417C104.444 125.033 104.53 124.607 104.48 124.141C104.428 123.673 104.237 123.165 103.908 122.615C103.578 122.066 103.221 121.662 102.835 121.4C102.448 121.137 102.036 121.014 101.599 121.032C101.163 121.046 100.704 121.2 100.218 121.492L99.112 122.158L102.069 127.085Z" fill="#17254E"/>
<path d="M109.955 119.986L111.054 116.648L108.395 114.838H111.692L112.862 111.287L114.032 114.838H117.329L114.67 116.648L115.769 119.986L112.862 117.891L109.955 119.986Z" fill="#17254E"/>
<path d="M26.5944 119.986L27.6934 116.648L25.0345 114.838H28.3315L29.5014 111.287L30.6713 114.838H33.9684L31.3095 116.648L32.4085 119.986L29.5014 117.891L26.5944 119.986Z" fill="#17254E"/>
<path d="M72.3621 124.29C101.467 124.29 125.061 100.66 125.061 71.5112C125.061 42.3624 101.467 18.7326 72.3621 18.7326C43.2573 18.7326 19.6632 42.3624 19.6632 71.5112C19.6632 100.66 43.2573 124.29 72.3621 124.29Z" stroke="#17254E"/>
<path d="M71.4039 142.522C110.563 142.522 142.308 110.73 142.308 71.5112C142.308 32.2928 110.563 0.5 71.4039 0.5C32.2448 0.5 0.5 32.2928 0.5 71.5112C0.5 110.73 32.2448 142.522 71.4039 142.522Z" stroke="#17254E"/>
</svg>
