<svg width="1920" height="47" viewBox="0 0 1920 47" fill="none" xmlns="http://www.w3.org/2000/svg">
<path d="M80.5266 5.51251C58.9213 3.08331 20.6717 6.41156 0 8.4359L2.14577e-06 46.4359H1920V29.9359V5.51251C1920 5.51251 1791.95 13.6731 1749.94 7.41032C1707.93 1.14754 1506.88 5.51251 1442.36 7.41032C1377.84 9.30813 1234.81 5.5125 1197.3 2.66578C1159.79 -0.180945 1078.27 15.9505 1028.76 5.51251C979.247 -4.92545 900.727 2.66578 871.22 2.66578C841.713 2.66578 760.193 5.5125 728.685 2.66578C697.178 -0.180945 591.152 2.66579 560.644 5.51251C530.137 8.35923 412.608 2.66579 399.605 5.51251C386.602 8.35923 287.577 5.5125 260.071 2.66578C232.564 -0.180945 107.533 8.54901 80.5266 5.51251Z" fill="white"/>
</svg>
