<svg width="350" height="186" viewBox="0 0 350 186" fill="none" xmlns="http://www.w3.org/2000/svg">
<path d="M269.853 177.617C267.35 180.863 264.409 183.275 265.054 184.371C265.054 184.371 266.386 185.34 270.063 185.34C276.367 185.34 282.561 184.86 281.543 184.221C280.134 183.336 276.053 183.016 272.153 181.666C271.189 181.332 274.262 179.465 273.423 179.16C271.686 178.527 270.333 177.98 269.853 177.617Z" fill="#002E4F"/>
<path d="M334.799 184.177C334.799 184.177 335.627 185.339 338.806 185.339C344.256 185.339 349.937 184.599 349.058 184.046C347.839 183.282 338.286 181.288 338.286 181.288L336.144 178.628L332.511 180.638L334.799 184.177Z" fill="#002E4F"/>
<path d="M317.531 103.853C313.622 103.853 310.666 103.072 310.419 103.005C308.38 102.448 307.178 100.345 307.734 98.306C308.289 96.269 310.385 95.07 312.422 95.617C312.556 95.652 321.162 97.857 326.186 93.547C329.548 90.66 330.826 85.225 329.983 77.39L329.714 74.891L337.453 70.506C339.295 69.464 341.629 70.11 342.67 71.949C343.712 73.788 343.066 76.124 341.227 77.165L337.805 79.104C338.346 88.332 336.104 95.15 331.126 99.393C326.929 102.968 321.691 103.853 317.531 103.853Z" fill="#00A4E2"/>
<path d="M330.776 82.616C330.63 88.182 329.152 92.21 326.346 94.616C320.835 99.346 311.397 96.934 311.235 96.891C308.998 96.287 306.697 97.608 306.088 99.842C305.478 102.08 306.797 104.391 309.035 105.002C309.307 105.074 312.556 106.695 316.844 106.543C333.128 105.965 342.956 91.918 343.138 83.729L330.776 82.616Z" fill="#E1F3F6"/>
<path d="M308.385 63.137C306.926 62.483 305.492 61.775 304.08 61.032C290.587 68.716 273.348 78.56 273.006 78.903C273.006 78.903 281.574 92.546 282.122 93.093C282.474 93.445 303.72 78.204 319.004 67.161C315.478 65.796 311.842 64.687 308.385 63.137Z" fill="#008DC4"/>
<path d="M308.606 62.745C312.139 64.304 315.851 65.435 319.443 66.847C327.858 60.766 334.363 56.033 334.363 56.033L319.98 51.991C319.98 51.991 313.059 55.92 304.532 60.775C305.87 61.473 307.225 62.135 308.606 62.745Z" fill="#00AFE2"/>
<path d="M283.812 44.835L292.28 67.76L308.834 73.835L287.865 35.531L283.812 44.835Z" fill="#006091"/>
<path d="M309.735 79.466H297.47L308.387 98.536L325.028 105.552L309.735 79.466Z" fill="#006091"/>
<path d="M325.028 105.552L315.264 88.896L273.494 113.384L265.28 99.372L270.438 16.068L289.209 5.06401L322.994 62.696L334.362 56.032L343.816 72.158L332.448 78.822L342.212 95.477L325.028 105.552ZM287.135 40.914L286.078 41.534L283.207 86.021L305.81 72.77L287.135 40.914Z" fill="#0076AD"/>
<path d="M251.395 95.56L265.281 99.372L273.495 113.384L258.823 109.667L251.395 95.56Z" fill="#008DC4"/>
<path d="M251.395 95.56L265.281 99.372L270.439 16.068L257.699 13.019L251.395 95.56Z" fill="#00AFE2"/>
<path d="M257.699 13.019L270.439 16.068L289.21 5.06401L276.308 1.31302L257.699 13.019Z" fill="#00D2FD"/>
<path d="M285.634 128.755C285.634 128.755 287.675 150.769 287.675 158.48C287.675 158.48 271.646 170.974 267.721 177.509C269.407 178.792 272.739 180.495 274.921 180.429C285.616 170.216 297.356 162.927 297.356 162.927C297.356 162.927 302.42 148.237 303.997 135.8L285.634 128.755Z" fill="#002E4F"/>
<path d="M297.059 129.794C300.668 129.819 304.357 129.198 307.461 127.513C306.419 123.117 308.639 110.146 311.426 103.214C311.426 103.214 313.624 98.388 312.083 96.905C306.381 91.421 301.528 91.87 300.019 91.809C294.785 96.227 285.045 109.266 285.436 126.498C288.127 129.325 293.59 129.771 297.059 129.794Z" fill="#E1F3F6"/>
<path d="M332.418 181.243C334.505 180.663 336.506 179.698 337.79 177.991C331.601 167.952 308.903 131.079 307.674 128.192C307.643 128.118 307.614 128.032 307.585 127.948C304.252 129.745 300.275 130.378 296.419 130.229C293.061 130.1 288.199 129.629 285.457 127.143C285.464 127.321 285.465 127.497 285.474 127.676C285.948 137.301 317.875 169.393 330.44 181.664C331.131 181.564 331.802 181.413 332.418 181.243Z" fill="#00396A"/>
<path d="M266.509 119.814C265.622 119.814 264.771 119.687 263.957 119.414C262.269 118.85 260.036 117.428 258.981 113.869C258.38 111.842 259.536 109.711 261.563 109.111C263.589 108.509 265.718 109.668 266.319 111.693C266.39 111.929 266.456 112.08 266.503 112.168C266.911 112.186 268.427 112.053 272.116 109.885C275.412 107.95 279.311 105.065 283.082 102.276C289.453 97.561 295.471 93.11 300.44 91.538C302.454 90.899 304.605 92.018 305.243 94.032C305.881 96.048 304.764 98.198 302.75 98.835C298.997 100.023 293.221 104.298 287.634 108.429C279.456 114.478 272.244 119.814 266.509 119.814Z" fill="#00A4E2"/>
<path d="M273.67 116.952C273.201 114.698 272.71 112.21 271.283 110.358C268.198 112.067 266.88 112.182 266.504 112.167C266.457 112.079 266.392 111.929 266.32 111.692C265.719 109.667 263.591 108.508 261.564 109.11C259.537 109.71 258.381 111.84 258.982 113.868C260.037 117.427 262.27 118.848 263.958 119.413C264.772 119.686 265.623 119.813 266.51 119.813C268.734 119.813 271.18 119.008 273.819 117.672C273.768 117.433 273.719 117.193 273.67 116.952Z" fill="#00A4E2"/>
<path d="M305.244 94.03C304.606 92.016 302.455 90.8971 300.441 91.5361C295.471 93.1081 289.454 97.559 283.083 102.274C279.312 105.063 275.413 107.948 272.117 109.883C271.967 109.973 271.825 110.051 271.681 110.133C273.112 112.024 275.588 121.348 275.632 121.561C279.69 119.438 299.155 104.62 303.375 100.147C304.827 98.611 305.882 96.046 305.244 94.03Z" fill="#E1F3F6"/>
<path d="M261.097 116.722C260.87 116.722 260.642 116.654 260.444 116.513C257.441 114.367 255.875 110.236 255.809 110.062C255.592 109.48 255.887 108.832 256.47 108.613C257.051 108.398 257.7 108.691 257.917 109.273C257.932 109.31 259.315 112.941 261.752 114.681C262.258 115.042 262.375 115.745 262.014 116.249C261.795 116.558 261.449 116.722 261.097 116.722Z" fill="#00A4E2"/>
<path d="M261.099 113.978C260.745 113.978 260.398 113.812 260.179 113.501C258.742 111.466 257.591 106.63 257.464 106.087C257.324 105.482 257.7 104.876 258.306 104.735C258.913 104.59 259.517 104.971 259.658 105.577C259.975 106.938 261.016 110.782 262.017 112.202C262.376 112.71 262.255 113.413 261.747 113.77C261.551 113.911 261.324 113.978 261.099 113.978Z" fill="#00A4E2"/>
<path d="M262.652 113.345C262.208 113.345 261.787 113.081 261.609 112.644C260.578 110.117 260.175 104.816 260.159 104.591C260.113 103.972 260.578 103.433 261.198 103.386C261.821 103.335 262.357 103.806 262.404 104.425C262.509 105.857 262.949 109.97 263.693 111.794C263.928 112.37 263.652 113.026 263.077 113.261C262.937 113.318 262.794 113.345 262.652 113.345Z" fill="#00A4E2"/>
<path d="M264.341 112.802C263.839 112.802 263.383 112.466 263.251 111.958C262.543 109.208 263.188 106.403 263.217 106.286C263.36 105.681 263.968 105.307 264.571 105.448C265.175 105.591 265.55 106.196 265.409 106.801C265.397 106.854 264.87 109.211 265.432 111.395C265.587 111.998 265.224 112.612 264.622 112.766C264.528 112.792 264.433 112.802 264.341 112.802Z" fill="#00A4E2"/>
<path d="M309.594 100.148C309.078 100.148 308.555 100.037 308.058 99.802C306.259 98.952 305.491 96.804 306.341 95.007C307.23 93.126 308.834 91.2 309.015 90.985C310.299 89.465 312.57 89.274 314.09 90.557C315.61 91.838 315.803 94.108 314.524 95.629C314.073 96.164 313.221 97.305 312.854 98.084C312.238 99.386 310.943 100.148 309.594 100.148Z" fill="#00A4E2"/>
<path d="M310.113 98.294C310.539 98.765 310.986 99.208 311.451 99.63C312.041 99.277 312.537 98.753 312.853 98.085C313.22 97.306 314.072 96.165 314.523 95.63C315.802 94.109 315.609 91.839 314.089 90.558C312.568 89.275 310.298 89.466 309.014 90.986C308.943 91.072 308.65 91.424 308.267 91.931C308.3 94.2 308.538 96.558 310.113 98.294Z" fill="#0086CF"/>
<path d="M321.941 94.32C320.507 97.797 316.528 99.455 313.05 98.021C309.573 96.587 307.916 92.607 309.35 89.128L311.152 84.759C312.586 81.28 316.567 79.624 320.044 81.058C323.521 82.492 325.177 86.472 323.743 89.949L321.941 94.32Z" fill="#00A4E2"/>
<path d="M310.112 88.62C309.558 90.96 306.197 90.21 304.935 88.987C303.196 87.305 302.158 82.546 306.011 82.8C303.236 78.61 312.65 74.066 313.638 78.908C314.373 77.659 315.125 76.537 316.763 76.431C317.942 76.356 320.006 77.268 319.835 78.712C321.586 77.328 324.136 77.436 325.868 78.834C326.422 79.282 327.421 80.278 326.921 81.004C326.646 81.404 325.228 81.527 324.753 81.672C325.572 81.301 328.927 82.049 328.267 83.443C327.959 84.093 326.318 83.509 325.837 83.371C325.837 83.371 325.832 83.523 325.837 83.517C327.629 84.499 328.367 85.496 328.152 87.726C328.053 88.751 327.568 90.689 326.348 90.835C325.723 90.909 325.001 90.515 325.012 89.86C326.509 91.354 324.389 95.354 322.498 93.382C321.757 92.609 322.114 91.312 322.817 90.644C321.699 90.001 319.273 86.601 320.999 85.691C320.192 85.711 316.457 84.443 317.645 83.369C317.959 84.615 316.416 86.228 315.188 85.588C315.952 87.25 313.706 88.49 312.326 88.549C313.171 89.612 310.567 90.873 309.772 89.332L310.112 88.62Z" fill="#00396A"/>
<path d="M182.166 75.028C182.166 75.028 179.98 66.661 190.823 64.673L189.997 74.727L182.166 75.028Z" fill="#0089E0"/>
<path d="M138.719 96.155C136.345 96.155 134.138 95.675 132.103 94.712C122.253 90.058 121.159 76.075 121.118 75.482C120.97 73.373 122.559 71.543 124.667 71.395C126.772 71.248 128.599 72.83 128.752 74.935C128.966 77.748 130.574 85.538 135.39 87.8C139.367 89.667 145.535 87.767 153.229 82.302C154.952 81.077 157.341 81.484 158.565 83.206C159.789 84.931 159.383 87.319 157.66 88.544C150.523 93.611 144.182 96.155 138.719 96.155Z" fill="#CDE5E8"/>
<path d="M159.084 103.337C160.148 100.544 161.135 97.708 162.284 94.946C161.509 94.886 160.728 94.786 159.935 94.636C156.222 93.927 153.079 92.417 150.505 90.105C147.929 87.794 145.941 84.865 144.538 81.322C143.135 77.778 142.319 73.749 142.091 69.233C141.861 64.719 142.226 59.953 143.184 54.934C144.161 49.817 145.584 45.228 147.452 41.164C149.32 37.101 151.559 33.68 154.17 30.903C156.779 28.126 159.707 26.138 162.953 24.938C166.197 23.739 169.677 23.492 173.39 24.201C176.329 24.763 178.918 25.871 181.171 27.507C182.256 25.342 183.422 23.217 184.532 21.097C185.843 18.59 187.061 16.036 188.227 13.46C188.725 12.358 189.157 11.224 189.609 10.099C185.846 7.95399 181.629 6.43199 176.955 5.53799C170.332 4.27299 164.098 4.51299 158.254 6.25599C152.407 8.00099 147.146 10.92 142.463 15.017C137.78 19.115 133.807 24.259 130.546 30.445C127.282 36.634 124.925 43.543 123.469 51.167C122.012 58.793 121.656 66.084 122.41 73.039C123.16 79.994 124.958 86.238 127.801 91.773C130.644 97.308 134.458 101.964 139.251 105.738C143.712 109.254 148.968 111.68 155.019 113.019C156.452 109.824 157.838 106.612 159.084 103.337Z" fill="#00AFE2"/>
<path d="M210.915 45.799C210.162 38.845 208.366 32.599 205.524 27.064C202.681 21.529 198.864 16.875 194.075 13.099C192.785 12.083 191.426 11.161 190.005 10.327C189.557 11.451 189.128 12.584 188.621 13.681C187.433 16.248 186.242 18.811 184.926 21.317C183.805 23.45 182.628 25.59 181.537 27.771C181.925 28.067 182.304 28.375 182.67 28.703C185.243 31.016 187.257 33.948 188.71 37.501C190.163 41.054 191.01 45.064 191.249 49.53C191.487 53.996 191.118 58.786 190.142 63.903C189.184 68.921 187.765 73.487 185.888 77.598C184.01 81.712 181.74 85.151 179.079 87.919C176.418 90.687 173.466 92.673 170.222 93.87C167.829 94.755 165.338 95.122 162.749 94.979C161.476 98 160.403 101.112 159.242 104.17C158.093 107.195 156.801 110.162 155.472 113.113C155.771 113.176 156.069 113.238 156.37 113.297C162.991 114.563 169.224 114.322 175.069 112.578C180.913 110.836 186.177 107.916 190.86 103.818C195.544 99.72 199.514 94.578 202.777 88.388C206.039 82.202 208.399 75.294 209.856 67.668C211.313 60.046 211.665 52.754 210.915 45.799Z" fill="#006091"/>
<path d="M168.064 117.273C161.442 116.007 155.735 113.486 150.945 109.712C146.152 105.939 142.338 101.282 139.496 95.747C136.652 90.212 134.855 83.968 134.104 77.012C133.351 70.059 133.707 62.768 135.163 55.141C136.619 47.517 138.976 40.609 142.241 34.42C145.502 28.233 149.475 23.088 154.158 18.991C158.841 14.894 164.102 11.974 169.949 10.23C175.793 8.48699 182.026 8.248 188.649 9.513C195.27 10.778 200.975 13.298 205.767 17.073C210.558 20.85 214.374 25.503 217.217 31.038C220.061 36.573 221.855 42.819 222.609 49.773C223.359 56.729 223.007 64.02 221.55 71.644C220.093 79.27 217.734 86.177 214.472 92.364C211.208 98.554 207.238 103.696 202.555 107.794C197.872 111.892 192.608 114.812 186.764 116.554C180.918 118.296 174.686 118.538 168.064 117.273ZM171.63 98.611C175.242 99.3 178.669 99.047 181.915 97.845C185.159 96.648 188.112 94.661 190.773 91.894C193.432 89.126 195.703 85.687 197.581 81.574C199.459 77.462 200.877 72.897 201.835 67.879C202.813 62.761 203.182 57.972 202.943 53.505C202.705 49.04 201.857 45.029 200.406 41.477C198.952 37.923 196.937 34.992 194.365 32.679C191.789 30.368 188.697 28.866 185.086 28.176C181.372 27.466 177.893 27.714 174.65 28.912C171.403 30.113 168.476 32.1 165.866 34.878C163.255 37.655 161.016 41.076 159.149 45.139C157.28 49.203 155.858 53.791 154.88 58.909C153.921 63.927 153.557 68.694 153.786 73.208C154.015 77.725 154.83 81.752 156.234 85.297C157.636 88.84 159.624 91.77 162.2 94.08C164.772 96.392 167.916 97.902 171.63 98.611Z" fill="#0076AD"/>
<path d="M235.577 61.074L235.869 75.143C235.869 75.143 231.851 78.744 228.252 75.143L229.579 59.298L235.577 61.074Z" fill="#00396A"/>
<path d="M219.006 173.306C218.777 173.124 217.208 172.394 216.991 172.212C216.149 173.474 215.56 174.169 214.548 175.216C217.028 177.378 216.391 180.005 216.391 180.005C216.391 180.005 214.636 181.515 213.95 181.855C211.761 182.933 207.724 184.431 207.724 184.431L217.891 185.228L225.432 177.503C222.759 176.011 220.71 174.654 219.006 173.306Z" fill="#002E4F"/>
<path d="M179.172 173.857C177.553 173.574 175.509 174.814 174.192 173.857C173.886 176.685 173.945 178.228 173.945 178.228L158.903 184.431H178.113C178.286 182.384 177.919 180.419 178.195 178.523C178.335 177.548 178.995 174.796 179.172 173.857Z" fill="#002E4F"/>
<path d="M196.682 105.585L179.685 137.882C179.685 137.882 186.572 143.708 193.353 145.65L206.095 107.597L196.682 105.585Z" fill="#CDE5E8"/>
<path d="M215.294 176.025C216.314 174.982 217.155 173.738 217.994 172.474C213.597 168.706 211.446 164.824 205.472 158.142C203 155.376 209.548 139.54 211.138 136.884C213.994 132.111 214.436 128.65 216.669 120.48L200.069 126.681C196.118 140.835 191.514 154.992 196.13 161.744C201.007 168.883 209.662 174.633 213.839 177.504C213.998 177.612 215.155 175.919 215.294 176.025Z" fill="#002E4F"/>
<path d="M187.343 73.367C187.115 73.367 186.887 73.299 186.688 73.156C186.183 72.794 186.068 72.09 186.43 71.586C187.767 69.723 188.061 68.19 188.064 68.174C188.176 67.566 188.757 67.158 189.37 67.266C189.979 67.375 190.387 67.952 190.282 68.562C190.267 68.643 189.919 70.586 188.26 72.897C188.039 73.204 187.693 73.367 187.343 73.367Z" fill="#00A4E2"/>
<path d="M215.49 123.902C220.431 110.336 224.65 89.047 226.23 80.55C225.347 80.183 224.481 79.907 223.793 79.716C222.327 79.312 220.57 78.835 219.067 79.302C218.304 79.54 217.625 79.933 216.959 80.351C216.343 82.195 216.089 83.749 216.089 83.749C216.089 83.749 205.476 104.038 198.561 117.874C204.434 119.191 210.177 121.12 215.49 123.902Z" fill="#F6EE9E"/>
<path d="M198.362 118.29C198.359 118.288 198.357 118.288 198.354 118.286C197.742 119.513 197.16 120.686 196.62 121.786H196.615C195.255 124.196 193.789 126.425 192.369 128.565C178.712 149.157 173.555 165.569 172.643 173.336C173.947 174.354 178.878 174.93 180.522 175.215C183.042 162.34 189.598 154.121 201.345 144.41C205.276 141.16 208.216 137.031 210.8 133.603C212.34 131.56 213.868 128.285 215.335 124.318C210.012 121.529 204.246 119.603 198.362 118.29Z" fill="#00396A"/>
<path d="M185.109 123.954C183.523 123.954 182.041 122.962 181.493 121.38C180.801 119.382 181.858 117.202 183.855 116.511C188.499 114.902 195.62 108.554 200.421 101.745C210.165 87.929 217.006 80.268 217.293 79.948C218.704 78.375 221.124 78.243 222.697 79.655C224.269 81.065 224.401 83.485 222.99 85.057C222.923 85.133 216.136 92.741 206.675 106.155C201.936 112.876 193.556 121.247 186.361 123.741C185.948 123.886 185.525 123.954 185.109 123.954Z" fill="#00A4E2"/>
<path d="M223.543 81.818C223.455 81.818 223.366 81.814 223.276 81.808C221.293 81.662 219.802 79.937 219.947 77.952C220.099 75.878 220.902 73.503 220.994 73.238C221.643 71.358 223.693 70.36 225.574 71.009C227.453 71.657 228.451 73.705 227.804 75.585C227.577 76.247 227.194 77.618 227.131 78.477C226.993 80.372 225.413 81.816 223.543 81.818Z" fill="#00A4E2"/>
<path d="M224.597 78.018C225.234 78.75 225.929 79.401 226.665 79.997C226.924 79.544 227.09 79.031 227.131 78.477C227.194 77.619 227.577 76.248 227.804 75.585C228.451 73.705 227.452 71.657 225.574 71.009C224.014 70.47 222.341 71.068 221.443 72.359C221.775 74.393 223.436 76.685 224.597 78.018Z" fill="#0086CF"/>
<path d="M233.878 70.22C233.794 73.979 230.678 76.959 226.917 76.875C223.157 76.79 220.178 73.674 220.263 69.914L220.368 65.188C220.452 61.427 223.569 58.448 227.329 58.533C231.089 58.618 234.068 61.733 233.984 65.494L233.878 70.22Z" fill="#00A4E2"/>
<path d="M179.705 122.898C178.135 122.898 176.338 122.476 174.327 121.63C173.755 121.39 173.485 120.73 173.725 120.157C173.966 119.583 174.625 119.313 175.199 119.554C178.162 120.8 180.52 120.978 182.021 120.07C182.554 119.748 183.245 119.92 183.567 120.451C183.888 120.982 183.718 121.674 183.186 121.996C182.192 122.597 181.029 122.898 179.705 122.898Z" fill="#00A4E2"/>
<path d="M181.053 124.534C179.262 124.534 177.825 124.186 176.19 123.79L175.683 123.669C175.078 123.524 174.705 122.917 174.851 122.312C174.995 121.709 175.603 121.332 176.208 121.48L176.72 121.603C179.45 122.263 181.254 122.701 185.245 121.669C185.85 121.515 186.461 121.876 186.616 122.478C186.771 123.081 186.409 123.695 185.807 123.851C183.884 124.347 182.373 124.534 181.053 124.534Z" fill="#00A4E2"/>
<path d="M179.628 120.681C176.095 120.681 173.674 118.507 173.553 118.396C173.095 117.976 173.064 117.265 173.484 116.806C173.903 116.349 174.612 116.318 175.071 116.734C175.183 116.836 177.772 119.117 181.255 118.22C181.86 118.064 182.471 118.427 182.626 119.029C182.781 119.631 182.419 120.246 181.816 120.4C181.051 120.597 180.317 120.681 179.628 120.681Z" fill="#00A4E2"/>
<path d="M181.987 119.472C181.943 119.472 181.899 119.468 181.855 119.464C178.021 119.015 176.462 116.255 176.398 116.138C176.099 115.593 176.298 114.909 176.843 114.609C177.384 114.312 178.065 114.507 178.367 115.047C178.42 115.139 179.483 116.92 182.116 117.229C182.734 117.301 183.176 117.86 183.103 118.477C183.037 119.048 182.551 119.472 181.987 119.472Z" fill="#00A4E2"/>
<path d="M195.438 74.991C195.377 74.991 195.316 74.986 195.253 74.975C193.39 74.666 188.293 73.865 187.108 73.865C186.486 73.865 185.982 73.361 185.982 72.739C185.982 72.118 186.486 71.613 187.108 71.613C188.692 71.613 194.916 72.637 195.62 72.755C196.233 72.857 196.649 73.436 196.547 74.049C196.457 74.599 195.979 74.991 195.438 74.991Z" fill="#00A4E2"/>
<path d="M194.718 77.354C194.62 77.354 194.52 77.341 194.421 77.314C194.367 77.299 189.015 75.842 186.525 75.701C185.904 75.666 185.43 75.134 185.465 74.513C185.5 73.892 186.036 73.403 186.653 73.454C189.38 73.609 194.787 75.081 195.015 75.143C195.615 75.307 195.967 75.925 195.803 76.525C195.667 77.026 195.213 77.354 194.718 77.354Z" fill="#00A4E2"/>
<path d="M194.176 79.829C194.061 79.829 193.944 79.811 193.83 79.776C188.762 78.14 187.513 78.039 186.842 77.986C186.551 77.963 186.278 77.94 185.904 77.841C185.303 77.682 184.945 77.067 185.103 76.465C185.263 75.864 185.878 75.507 186.48 75.664C186.659 75.712 186.788 75.723 187.022 75.741C187.838 75.807 189.204 75.917 194.522 77.633C195.113 77.824 195.438 78.458 195.248 79.05C195.093 79.527 194.651 79.829 194.176 79.829Z" fill="#00A4E2"/>
<path d="M191.949 81.632C191.923 81.632 191.895 81.63 191.868 81.628C186.792 81.265 186.581 78.509 186.574 78.196L188.825 78.143C188.825 78.143 188.828 78.117 188.819 78.07C188.821 78.082 189.053 79.171 192.029 79.384C192.648 79.427 193.115 79.966 193.071 80.585C193.028 81.179 192.535 81.632 191.949 81.632Z" fill="#00A4E2"/>
<path d="M187.699 80.281C187.699 80.281 186.722 79.83 185.2 79.83C183.92 79.83 182.18 77.658 182.18 75.404C182.18 75.404 181.555 68.758 188.571 71.764L187.699 80.281Z" fill="#00A4E2"/>
<path d="M209.793 100.036L199.957 148.462C199.957 148.462 215.189 152.132 224.532 146.751L226.895 79.466C226.895 79.466 216.44 75.807 209.793 100.036Z" fill="#CDE5E8"/>
<path d="M212.07 126.681L221.492 126.175C221.492 126.175 221.718 140.583 216.09 140.021C216.09 140.021 208.388 141.704 212.07 126.681Z" fill="#E1F3F6"/>
<path d="M223.9 78.315C222.866 77.387 221.532 76.877 220.143 76.877C218.546 76.877 217.018 77.558 215.954 78.745C215.666 79.067 208.783 86.765 198.951 100.706C198.307 101.618 197.599 102.55 196.845 103.476L195.845 104.703L196.935 105.851C198.095 107.078 199.313 108.273 200.49 109.427C201.129 110.054 201.767 110.681 202.398 111.314L203.789 112.709L205.054 111.199C206.183 109.853 207.224 108.506 208.15 107.195C217.551 93.863 224.266 86.338 224.334 86.261C226.403 83.952 226.209 80.386 223.9 78.315Z" fill="#E1F3F6"/>
<path d="M198.056 100.357L194.254 104.589L204.159 113.487L207.961 109.255L198.056 100.357Z" fill="#F8FDFF"/>
<path d="M213.426 72.923L222.08 76.315C222.08 76.315 225.76 58.41 223.074 55.725C223.074 55.725 213.426 54.81 213.426 72.923Z" fill="#00396A"/>
<path d="M223.575 58.842C223.882 59.299 230.596 63.78 235.869 62.54C235.869 62.54 234.968 54.625 222.66 55.766L223.575 58.842Z" fill="#00396A"/>
<path d="M228.759 67.283C228.759 69.362 227.074 71.046 224.995 71.046C222.917 71.046 221.232 69.362 221.232 67.283C221.232 65.205 222.917 63.52 224.995 63.52C227.074 63.521 228.759 65.205 228.759 67.283Z" stroke="#DDDD67" stroke-width="0.8679" stroke-miterlimit="10"/>
<path d="M237.259 68.021C237.259 69.829 235.794 71.295 233.986 71.295C232.178 71.295 230.713 69.829 230.713 68.021C230.713 66.213 232.179 64.748 233.986 64.748C235.794 64.748 237.259 66.213 237.259 68.021Z" stroke="#DDDD67" stroke-width="0.755" stroke-miterlimit="10"/>
<path d="M228.759 67.283C228.759 67.283 230.008 66.794 230.752 67.538" stroke="#DDDD67" stroke-width="0.8679" stroke-miterlimit="10"/>
<path d="M119.269 73.875C119.181 73.875 119.093 73.871 119.003 73.864C117.019 73.719 115.528 71.993 115.673 70.009C115.825 67.935 116.628 65.56 116.72 65.296C117.368 63.416 119.419 62.417 121.3 63.067C123.179 63.716 124.177 65.764 123.53 67.643C123.303 68.306 122.92 69.677 122.857 70.536C122.719 72.429 121.139 73.874 119.269 73.875Z" fill="#0086CF"/>
<path d="M117.131 173.835C123.097 176.589 127.992 176.532 128.387 176.589C132.277 169.667 143.994 150.923 133.334 135.54L118.257 127.436C118.257 127.436 133.334 143.167 117.131 173.835Z" fill="#002E4F"/>
<path d="M124.935 179.962C124.935 179.962 126.328 177.136 127.415 175.237C126.599 175.137 122.947 174.989 121.447 174.413C120.039 177.288 116.971 181.501 114.804 184.39H135.064L124.935 179.962Z" fill="#002E4F"/>
<path d="M149.998 136.441C147.478 131.55 129.178 116.822 127.519 108.363C127.373 107.615 127.247 106.846 127.138 106.058C124.199 107.613 120.383 108.035 117.36 108.189C113.931 108.363 111.881 108.576 108.563 106.961C108.844 112.211 107.99 117.279 111.052 122.598C117.13 133.149 137.326 142.184 139.579 145.67C144.021 152.549 145.558 167.481 147.07 176.59C149.448 176.59 155.086 176.486 157.403 175.664C156.622 170.992 157.891 151.763 149.998 136.441Z" fill="#00396A"/>
<path d="M156.305 179.144C156.305 179.144 155.648 176.48 155.451 175.238C153.133 176.053 151.784 175.232 149.399 175.238C149.76 177.498 149.493 181.721 149.702 184.199H168.912L156.305 179.144Z" fill="#002E4F"/>
<path d="M117.501 110.952C120.427 110.817 126.572 110.003 129.038 107.538C128.533 103.522 126.738 97.061 127.37 91.862C129.513 74.234 120.905 68.95 120.905 68.95C120.905 68.95 116.942 66.179 113.73 69.488C108.888 74.476 104.164 88.579 104.637 109.429C107.975 111.152 113.993 111.112 117.501 110.952Z" fill="#CDE5E8"/>
<path d="M161.645 116.517C161.359 116.517 161.068 116.486 160.777 116.417C146.906 113.198 135.159 104.888 126.805 92.382C120.545 83.013 118.383 74.604 118.293 74.251C117.776 72.201 119.02 70.122 121.069 69.606C123.117 69.089 125.195 70.33 125.714 72.376C125.754 72.529 127.747 80.093 133.314 88.347C140.659 99.234 150.48 106.171 162.506 108.962C164.566 109.439 165.847 111.495 165.369 113.554C164.96 115.322 163.385 116.517 161.645 116.517Z" fill="#00A4E2"/>
<path d="M153.214 105.019C145.571 101.4 139.065 95.664 133.875 87.968C128.376 79.816 126.388 72.282 126.37 72.21C125.863 70.211 124.069 68.813 122.009 68.813C121.639 68.813 121.267 68.859 120.905 68.951C119.739 69.244 118.757 69.975 118.14 71.007C117.523 72.039 117.345 73.25 117.639 74.416L117.658 74.499C118.25 77.075 120.616 86.136 126.244 94.558C132.98 104.644 142.12 112.193 152.675 116.392C152.755 116.423 152.84 116.439 152.925 116.439C153.058 116.439 153.191 116.4 153.304 116.322C153.489 116.197 153.6 115.988 153.6 115.763V105.628C153.599 105.367 153.449 105.13 153.214 105.019Z" fill="#E1F3F6"/>
<path d="M164.488 116.79C163.261 116.79 161.96 116.653 160.585 116.378C159.975 116.257 159.58 115.663 159.701 115.054C159.823 114.445 160.415 114.048 161.026 114.171C164.378 114.841 167.174 114.597 169.338 113.444C169.887 113.151 170.568 113.36 170.86 113.909C171.152 114.458 170.944 115.139 170.395 115.431C168.695 116.337 166.718 116.79 164.488 116.79Z" fill="#00A4E2"/>
<path d="M164.647 114.271C164.111 114.271 163.559 114.236 162.999 114.154C162.384 114.064 161.958 113.492 162.048 112.877C162.138 112.262 162.707 111.836 163.324 111.926C166.924 112.453 170.257 110.584 170.291 110.565C170.831 110.258 171.518 110.444 171.826 110.983C172.134 111.522 171.95 112.208 171.412 112.518C171.27 112.597 168.316 114.271 164.647 114.271Z" fill="#00A4E2"/>
<path d="M163.648 112.056C163.473 112.056 163.294 112.05 163.112 112.038C162.491 111.999 162.02 111.466 162.059 110.845C162.098 110.224 162.633 109.753 163.253 109.792C165.916 109.956 167.314 108.339 167.326 108.323C167.718 107.839 168.428 107.766 168.909 108.159C169.391 108.55 169.466 109.259 169.073 109.741C168.994 109.841 167.152 112.056 163.648 112.056Z" fill="#00A4E2"/>
<path d="M159.756 110.157C159.135 110.157 158.63 109.653 158.63 109.032C158.63 108.413 159.131 107.909 159.75 107.907C159.851 107.905 162.073 107.854 163.345 106.022C163.7 105.51 164.401 105.385 164.911 105.739C165.422 106.092 165.549 106.794 165.194 107.305C163.237 110.126 159.896 110.157 159.756 110.157Z" fill="#00A4E2"/>
<path d="M156.076 84.753C155.725 84.753 155.38 84.591 155.16 84.284C153.5 81.971 153.151 80.03 153.137 79.948C153.032 79.337 153.443 78.754 154.056 78.649C154.665 78.543 155.249 78.954 155.356 79.567C155.358 79.575 155.653 81.108 156.99 82.971C157.352 83.477 157.237 84.18 156.731 84.541C156.533 84.685 156.302 84.753 156.076 84.753Z" fill="#00A4E2"/>
<path d="M156.311 85.251C156.241 85.251 156.168 85.245 156.097 85.231C153.635 84.758 148.749 84.753 148.7 84.753C148.079 84.753 147.575 84.249 147.575 83.628C147.575 83.007 148.079 82.503 148.7 82.503C148.909 82.503 153.849 82.509 156.521 83.021C157.131 83.136 157.532 83.726 157.414 84.337C157.312 84.876 156.84 85.251 156.311 85.251Z" fill="#00A4E2"/>
<path d="M148.083 87.595C147.523 87.595 147.038 87.177 146.967 86.609C146.891 85.992 147.328 85.429 147.946 85.353C148.661 85.263 154.983 84.494 157.028 84.857C157.64 84.964 158.048 85.548 157.939 86.162C157.831 86.773 157.245 87.183 156.634 87.072C155.345 86.845 150.791 87.267 148.224 87.586C148.176 87.591 148.129 87.595 148.083 87.595Z" fill="#00A4E2"/>
<path d="M149.546 90.14C149.018 90.14 148.546 89.767 148.442 89.228C148.324 88.617 148.724 88.027 149.335 87.91C152.062 87.385 152.789 87.152 154.109 86.726C154.727 86.527 155.497 86.281 156.644 85.947C157.24 85.775 157.866 86.119 158.038 86.715C158.211 87.313 157.867 87.938 157.27 88.11C156.155 88.434 155.434 88.667 154.798 88.87C153.441 89.308 152.62 89.571 149.76 90.122C149.688 90.134 149.616 90.14 149.546 90.14Z" fill="#00A4E2"/>
<path d="M151.97 91.929C151.432 91.929 150.955 91.542 150.862 90.993C150.758 90.38 151.17 89.798 151.782 89.694C155.427 89.069 156.154 87.71 156.158 87.696C156.353 87.104 156.989 86.784 157.58 86.979C158.17 87.174 158.49 87.811 158.296 88.401C158.151 88.837 157.18 91.053 152.162 91.913C152.097 91.923 152.034 91.929 151.97 91.929Z" fill="#00A4E2"/>
<path d="M156.309 90.574L155.451 81.4C155.451 81.4 159.475 81.693 159.467 85.91C159.464 87.318 159.058 88.886 156.309 90.574Z" fill="#00A4E2"/>
<path d="M130.979 60.687C131.995 64.527 129.705 68.465 125.864 69.48C122.022 70.496 118.085 68.207 117.068 64.366L115.791 59.537C114.775 55.696 117.065 51.758 120.906 50.742C124.748 49.725 128.685 52.015 129.702 55.857L130.979 60.687Z" fill="#00A4E2"/>
<path d="M130.304 58.135C129.758 59.659 128.984 61.168 127.796 62.195C124.9 64.694 120.46 65.368 116.937 63.87L117.068 64.368C118.085 68.209 122.022 70.498 125.864 69.482C129.705 68.467 131.995 64.528 130.979 60.689L130.304 58.135Z" fill="#00396A"/>
<path d="M117.047 64.101C114.345 62.366 111.427 55.772 115.695 54.329C118.336 53.436 117.272 61.576 117.272 63.877L117.047 64.101Z" fill="#00396A"/>
<path d="M114.878 54.872C111.612 52.506 115.659 45.812 123.729 45.812C128.716 45.812 128.68 49.633 125.231 51.695C122.369 53.406 117.93 52.404 115.78 55.321L114.878 54.872Z" fill="#00396A"/>
<path d="M130.302 59.611C129.159 57.877 126.906 54.364 126.03 52.387C125.474 51.131 124.713 48.989 127.229 50.51C129.335 51.783 130.479 56.273 130.281 58.549L130.302 59.611Z" fill="#00396A"/>
<path d="M73.2802 75.617C72.0382 76.767 70.6712 77.838 69.5512 79.119L53.3032 113.06L65.3992 97.447L78.2462 70.891C76.6022 72.478 74.9582 74.066 73.2802 75.617Z" fill="#006091"/>
<path d="M63.643 70.045C64.822 68.433 65.956 66.539 67.296 64.874L38.857 50.989L11.874 53.69L59.153 75.492C60.704 73.724 62.262 71.934 63.643 70.045Z" fill="#006091"/>
<path d="M67.7019 65.072C66.1899 66.964 64.9639 69.189 63.5129 70.955C62.2099 72.541 60.9029 74.124 59.5659 75.683L81.0599 85.594L88.8639 75.404L67.7019 65.072Z" fill="#00AFE2"/>
<path d="M35.336 104.458L43.673 87.044L0 66.138L7.014 51.489L78.932 9.134L98.557 18.529L69.71 78.785L81.596 84.476L73.525 101.335L61.639 95.646L53.303 113.06L35.336 104.458ZM67.688 36.878L66.583 36.349L28.111 58.871L51.744 70.185L67.688 36.878Z" fill="#0076AD"/>
<path d="M81.5948 84.476L88.8629 75.403L83.1599 88.048L73.2559 101.882L81.5948 84.476Z" fill="#006091"/>
<path d="M78.812 70.385L107.172 8.217L98.556 18.53L69.709 78.786C70.514 78.01 78.353 70.844 78.812 70.385Z" fill="#006091"/>
<path d="M7.01318 51.489L19.8292 40.333L90.1012 0L78.9312 9.134L7.01318 51.489Z" fill="#009EE7"/>
<path d="M78.9312 9.134L98.5562 18.529L107.173 8.217L90.1012 0L78.9312 9.134Z" fill="#00D2FD"/>
<path d="M54.8458 54.543C52.4318 52.827 50.7698 53.578 49.6108 53.758C48.3408 53.954 47.4018 53.261 47.3968 53.258C46.8758 52.92 46.1778 53.069 45.8398 53.59C45.5008 54.111 45.6508 54.809 46.1718 55.147C46.2248 55.182 47.2068 55.806 48.9228 56.256C47.0508 57.962 45.1428 60.023 45.0358 60.138C44.6138 60.594 44.6418 61.307 45.0988 61.728C45.3148 61.928 45.5888 62.027 45.8618 62.027C46.1658 62.027 46.4668 61.905 46.6888 61.665C46.7098 61.642 48.0408 60.207 49.5258 58.776C48.1468 60.502 46.8528 62.296 46.6168 62.627C46.2548 63.132 46.3708 63.835 46.8758 64.198C47.0738 64.341 47.3038 64.408 47.5308 64.408C47.8808 64.408 48.2258 64.245 48.4458 63.939C49.1818 62.911 50.2218 61.521 51.2148 60.274C50.8458 61.004 50.3768 61.831 49.4388 63.341C49.1108 63.87 49.2718 64.563 49.7998 64.891C49.9848 65.006 50.1908 65.06 50.3928 65.06C50.7698 65.06 51.1368 64.872 51.3508 64.528C51.7368 63.906 52.0478 63.392 52.3088 62.949C52.1128 63.438 52.2818 64.012 52.7398 64.311C52.9288 64.435 53.1418 64.493 53.3528 64.493C53.7208 64.493 54.0818 64.312 54.2968 63.981C55.3518 62.358 55.8628 61.034 56.0828 59.991L56.1288 60.026C56.7558 56.862 55.9938 55.358 54.8458 54.543ZM52.5918 62.462C52.9638 61.808 53.2188 61.313 53.4568 60.82C53.2548 61.3 52.9718 61.846 52.5918 62.462Z" fill="#00A4E2"/>
<path d="M20.3728 67.309C16.8098 67.107 11.6388 74.083 16.9288 75.981C12.1398 75.868 10.9678 82.638 15.3588 84.507C7.67082 83.011 8.56482 92.974 12.2018 96.579C9.73682 96.184 7.24582 98.54 7.61882 101.104C7.99482 103.686 9.01882 107.266 15.4068 109.184C21.7968 111.102 25.7018 107.51 28.8808 104.123C30.9158 108.281 40.9758 102.662 39.8598 97.687C43.6558 99.033 47.0568 94.724 47.1328 91.283C47.2068 87.924 44.8548 85.359 42.6168 83.178C44.1928 81.735 44.4918 79.058 44.0768 77.013C43.3878 73.615 39.1338 73.278 39.1338 70.574C39.1338 69.628 39.3158 66.688 38.5088 65.397C37.2258 63.342 34.9908 61.309 32.1808 62.313C20.3728 56.713 20.3728 67.309 20.3728 67.309Z" fill="#00396A"/>
<path d="M27.2581 176.589C24.0111 176.023 23.4871 176.185 20.2791 175.401L12.8511 184.479H41.6651L24.9321 179.977L27.2581 176.589Z" fill="#002E4F"/>
<path d="M80.909 179.191L79.206 176.955C77.669 177.949 76.069 178.799 74.333 179.402L78.883 184.48H95.767L80.909 179.191Z" fill="#002E4F"/>
<path d="M17.2271 176.618C20.4551 177.409 23.6821 178.231 26.9501 178.786L50.744 149.513L46.692 137.882L30.0331 118.673L34.8321 145.896L17.2271 176.618Z" fill="#002E4F"/>
<path d="M49.5879 110.612C43.0599 108.88 34.2089 111.071 27.8579 113.467C27.8579 113.467 31.7539 128.977 34.3109 133.604C41.7589 147.075 73.9739 180.696 73.9739 180.696C75.7429 180.094 79.1519 177.598 80.7119 176.589L49.5879 110.612Z" fill="#00396A"/>
<path d="M26.9941 119.534C33.2981 117.167 45.9431 113.175 52.4321 114.796C52.4321 114.796 43.8381 94.61 39.9381 90.157C37.3051 87.153 22.9321 78.695 22.9321 89.753C22.9321 104.904 26.9941 119.534 26.9941 119.534Z" fill="#CDE5E8"/>
<path d="M32.597 88.81C32.513 88.839 32.429 88.865 32.341 88.89C30.421 89.408 28.445 88.271 27.926 86.351C27.384 84.343 27.359 81.835 27.357 81.556C27.348 79.566 28.955 77.947 30.944 77.939C32.932 77.93 34.55 79.534 34.561 81.521C34.566 82.222 34.657 83.642 34.88 84.472C35.376 86.308 34.362 88.193 32.597 88.81Z" fill="#00A4E2"/>
<path d="M35 85.249C34.987 84.991 34.951 84.731 34.881 84.472C34.657 83.642 34.567 82.222 34.562 81.521C34.551 79.535 32.933 77.931 30.945 77.939C28.956 77.947 27.3489 79.565 27.3579 81.556C27.3579 81.601 27.36 81.71 27.363 81.861C29.137 83.865 32.062 84.808 35 85.249Z" fill="#0086CF"/>
<path d="M38.5219 74.451C39.6839 78.028 37.7259 81.869 34.1489 83.033C30.5719 84.193 26.73 82.236 25.568 78.659L24.1079 74.163C22.9459 70.586 24.9039 66.744 28.4799 65.583C32.0569 64.42 35.8989 66.378 37.0609 69.955L38.5219 74.451Z" fill="#00A4E2"/>
<path d="M78.6311 70.837C78.4881 70.717 78.323 70.644 78.153 70.606C78.317 70.427 78.493 70.234 78.698 70.012C79.119 69.554 79.0901 68.842 78.6331 68.421C78.5761 68.369 78.517 68.324 78.453 68.286C78.767 67.835 78.715 67.212 78.302 66.825C77.982 66.526 77.536 66.454 77.151 66.593C77.664 66.075 77.9831 65.715 78.0211 65.671C78.4321 65.205 78.387 64.493 77.92 64.082C77.454 63.671 76.742 63.716 76.332 64.183C76.306 64.212 73.8581 66.971 71.3421 68.406C70.2501 66.755 68.785 66.176 68.701 66.144C68.124 65.925 67.4861 66.215 67.2601 66.789C67.0351 67.363 67.3221 68.014 67.8931 68.245C67.9431 68.265 68.803 68.63 69.472 69.659C69.379 69.914 69.2721 70.276 69.2101 70.7C52.6461 93.12 30.682 85.162 29.687 84.784C27.719 84.03 25.51 85.007 24.747 86.974C23.982 88.945 24.9611 91.162 26.9321 91.925C27.2001 92.029 32.577 94.074 40.245 94.074C41.787 94.074 43.4231 93.992 45.1271 93.793C53.3961 92.834 65.6251 88.07 75.3981 75.477C75.5581 75.385 75.785 75.245 76.084 75.027C76.285 74.897 76.4881 74.755 76.6951 74.583L76.6691 74.563C77.2471 74.077 77.9601 73.388 78.7701 72.422C79.1701 71.945 79.1071 71.235 78.6311 70.837Z" fill="#00A4E2"/>
<path d="M48.1378 84.843L47.2048 85.044C44.9308 85.534 42.5758 85.784 40.2058 85.784C34.3988 85.784 30.3658 84.319 29.9288 84.153C29.4098 83.954 28.8668 83.854 28.3168 83.854C26.4428 83.854 24.7958 84.981 24.1178 86.729C23.6828 87.85 23.6058 89.125 24.1958 90.172C26.3938 94.072 32.4298 95.649 40.2458 95.649C41.9078 95.649 43.5758 95.553 45.2048 95.366C46.2008 95.251 47.2468 95.079 48.3128 94.854L48.9678 94.682C48.9678 94.682 48.0308 91.84 47.8308 88.953C47.7548 87.855 48.1378 84.843 48.1378 84.843Z" fill="#E1F3F6"/>
<path d="M23.956 77.777C26.32 76.275 27.137 73.461 26.877 70.647C28.95 72.041 30.59 71.191 31.885 68.796C35.813 74.3 41.799 66.111 33.636 63.146C27.107 60.774 20.707 67.231 22.38 73.725L23.956 77.777Z" fill="#00396A"/>
</svg>
